<svg width="417" height="494" viewBox="0 0 417 494" fill="none" xmlns="http://www.w3.org/2000/svg">
<path d="M261.478 464.583C261.382 464.623 261.277 464.675 261.183 464.714C260.778 464.413 260.35 464.151 259.901 463.916C260.283 463.745 260.656 463.575 261.022 463.379L261.139 463.313C263.936 461.782 266.018 459.294 267.068 456.335C267.517 456.349 267.967 456.335 268.422 456.283C267.317 459.792 264.913 462.737 261.622 464.505L261.478 464.583Z" fill="#FFFDFA"/>
<path d="M348.007 466.46C347.579 465.727 347.146 465.007 346.691 464.274C345.015 461.604 343.216 459.091 341.378 456.735C341.939 456.826 342.499 456.866 343.049 456.826C344.681 458.96 346.275 461.224 347.768 463.607C348.317 464.484 348.834 465.347 349.339 466.224C348.884 466.277 348.44 466.355 348.007 466.46" fill="#FFFDFA"/>
<path d="M325.83 456.508C325.724 457.477 325.323 458.472 324.63 459.48L323.587 458.76C324.086 458.027 324.392 457.333 324.519 456.652C324.964 456.639 325.402 456.6 325.83 456.508Z" fill="#FFFDFA"/>
<path d="M221.508 465.056C221.347 464.794 221.191 464.533 221.03 464.271C219.304 461.522 217.45 458.93 215.545 456.521C216.072 456.547 216.594 456.521 217.106 456.455C218.837 458.694 220.525 461.076 222.107 463.603C222.335 463.956 222.552 464.323 222.768 464.69C222.341 464.781 221.918 464.899 221.508 465.056" fill="#FFFDFA"/>
<path d="M135.964 464.498L135.82 464.576H135.815C135.149 464.93 134.449 465.218 133.738 465.466C133.299 465.126 132.828 464.838 132.328 464.603C132.65 464.485 132.967 464.38 133.294 464.275C134.004 464.04 134.699 463.739 135.359 463.385L135.481 463.32C138.196 461.828 140.528 459.511 142.132 456.88C142.609 456.959 143.087 456.972 143.564 456.946C141.815 460.048 139.123 462.809 135.964 464.498Z" fill="#FFFDFA"/>
<path d="M193.916 456.274C193.811 457.242 193.417 458.238 192.722 459.246L191.673 458.526C192.173 457.792 192.484 457.098 192.606 456.418C193.056 456.405 193.495 456.365 193.916 456.274Z" fill="#FFFDFA"/>
<path d="M344.709 456.916H263.631L263.536 456.391C263.308 455.145 241.036 330.7 231.86 290.048C224.1 255.669 229.784 205.504 231.815 190.213C225.132 205.669 202.693 259.556 203.254 285.802C203.903 316.579 225.086 454.8 225.298 456.181L225.409 456.916H139.301L139.295 456.286C139.289 454.905 138.601 317.84 138.956 276.528C139.139 254.829 151.98 220.015 162.722 194.64C174.346 167.163 186.083 144.519 186.199 144.294L187.327 144.879C186.86 145.78 140.578 235.366 140.228 276.528C139.883 316.399 140.512 445.436 140.561 455.656H223.933C222.256 444.671 202.609 315.529 201.982 285.832C201.321 254.859 232.199 186.161 232.509 185.471L234.447 181.194L233.72 185.831C233.619 186.461 223.95 249.232 233.097 289.763C241.974 329.094 263.098 446.757 264.691 455.656H342.954C338.864 443.02 290.372 292.554 291.638 260.246C292.054 249.697 293.392 238.082 294.802 225.777C297.823 199.532 301.242 169.79 295.33 146.35L296.561 146.035C302.529 169.699 299.093 199.577 296.068 225.927C294.652 238.202 293.32 249.787 292.909 260.291C291.604 293.635 343.904 454.47 344.438 456.091L344.709 456.916" fill="#FFFDFA"/>
<path d="M191.323 136.493C191.09 136.755 190.924 136.956 190.691 137.203C175.547 153.372 155.361 153.943 144.68 152.862C125.906 150.932 110.811 140.06 101.446 131.289C90.2648 120.788 82.3327 108.604 79.4294 101.191C76.2976 93.1769 77.2746 91.9261 77.5077 91.7562C77.9136 91.4628 79.0342 92.0033 79.7566 92.5283C79.7906 92.5592 79.823 92.5901 79.8569 92.6055L80.5499 93.1614C86.5465 104.064 97.9485 114.271 98.0658 114.379L98.8483 113.499C98.731 113.391 87.1284 103.014 81.3171 92.1114C80.0174 89.6714 79.1963 87.7411 78.707 86.2123C77.7747 82.5988 78.3798 81.1935 78.9632 80.653C79.2071 80.4214 79.5173 80.2669 79.8615 80.1897C79.8785 80.1897 79.8955 80.1744 79.9171 80.1744C79.9171 80.1744 79.9233 80.1744 79.9279 80.1744C80.34 80.0817 80.7676 80.0816 81.1396 80.1125C81.4884 80.1434 81.8496 80.2052 82.1984 80.2979H82.2046C83.0875 80.5141 83.9148 80.8384 84.4473 81.1009C85.3024 86.6602 92.1803 95.7404 106.254 110.133L107.092 109.299C97.6876 99.6936 85.747 86.6756 85.5417 80.1125C85.713 78.5065 86.2301 77.5028 87.079 77.0859C87.1562 77.055 87.2287 77.024 87.3121 76.9931C87.3167 76.9931 87.3229 76.9931 87.3229 76.9931C88.6503 76.6225 90.3821 77.2865 91.5027 77.8424C91.8639 78.0123 92.2189 78.2131 92.5585 78.4138C92.6033 78.4447 92.6357 78.4601 92.6419 78.4601C93.6405 79.0624 94.5126 79.6956 95.0559 80.1434C98.8483 88.2198 113.921 104.342 114.564 105.037L115.424 104.218C115.274 104.064 101.151 88.9611 96.6658 80.7302L96.0561 79.5102C95.8277 79.016 95.6563 78.5837 95.5174 78.1976C95.1609 77.1012 95.0791 76.0511 95.5344 75.6033C95.894 75.2636 97.2384 74.7386 101.946 77.3638C105.472 79.3404 109.84 84.1584 114.896 89.7332C122.646 98.2728 132.29 108.897 144.203 115.383C152.158 119.707 160.702 119.46 168.723 114.04C173.632 110.72 178.194 105.639 180.875 100.234L179.855 99.6935C177.273 104.62 173.209 109.608 168.685 112.681C161.035 117.839 152.319 118.456 144.769 114.349C133.028 107.955 123.458 97.408 115.768 88.9301C110.639 83.2936 106.214 78.4138 102.517 76.3445C101.397 75.7114 100.392 75.2327 99.492 74.8621C99.1308 74.6922 95.9388 73.1634 94.5126 74.5532C93.8072 75.2327 93.7177 76.3909 94.2347 78.0896C93.9461 77.8889 93.6235 77.6727 93.2793 77.4719C93.2083 77.4256 92.6187 77.0549 91.7759 76.6689C90.0981 75.8659 88.2227 75.3408 86.7456 75.9431C85.9075 76.2365 85.2638 76.8233 84.8409 77.7036C84.5369 78.3058 84.3748 79.0006 84.3532 79.7728C83.8808 79.572 83.2434 79.3405 82.538 79.1706C82.4763 79.1551 81.8156 78.9543 80.9605 78.9234C80.9173 78.9234 80.8725 78.9234 80.8278 78.9234C80.7552 78.9234 80.6889 78.9234 80.6163 78.9234C80.5175 78.9234 80.4218 78.9235 80.3231 78.939C80.2953 78.939 80.2721 78.939 80.2443 78.939C80.1455 78.9544 80.0452 78.9543 79.9449 78.9697C79.8955 78.9852 79.8446 78.9852 79.7952 79.0006C79.7288 79.0161 79.6624 79.0161 79.6007 79.0315C78.9077 79.186 78.2192 79.5102 77.6975 80.1588C76.6371 81.456 76.6032 83.587 77.5864 86.6137C77.9136 87.8491 78.3798 89.2236 79.0018 90.7524C78.2794 90.4745 77.4475 90.3354 76.8023 90.8141C75.904 91.4782 75.0828 93.3312 78.3304 101.624C81.067 108.604 88.55 120.803 100.64 132.138C103.128 134.47 106.021 136.956 109.269 139.381C118.428 146.206 130.463 152.584 144.558 154.036C155.461 155.148 176.058 154.545 191.552 138.006C191.796 137.759 191.868 137.667 192.106 137.389C192.106 137.389 191.595 136.771 191.323 136.493" fill="#FFFDFA"/>
<path d="M407.196 90.8141C406.559 90.3354 405.725 90.4745 405.005 90.7524C405.62 89.2236 406.087 87.8491 406.414 86.6137C407.402 83.587 407.363 81.456 406.303 80.1588C405.787 79.5102 405.099 79.186 404.404 79.0315C404.338 79.0161 404.276 79.0161 404.21 79.0006C404.16 78.9852 404.111 78.9852 404.06 78.9697C403.96 78.9543 403.861 78.9544 403.754 78.939C403.733 78.939 403.705 78.939 403.683 78.939C403.583 78.9235 403.483 78.9234 403.382 78.9234C403.316 78.9234 403.243 78.9234 403.177 78.9234C403.134 78.9234 403.083 78.9234 403.038 78.9234C402.189 78.9543 401.524 79.1551 401.468 79.1706C400.763 79.3405 400.124 79.572 399.652 79.7728C399.63 79.0006 399.463 78.3058 399.164 77.7036C398.736 76.8233 398.097 76.2365 397.259 75.9431C395.784 75.3408 393.901 75.8659 392.224 76.6689C391.382 77.0549 390.798 77.4256 390.726 77.4719C390.381 77.6727 390.06 77.8889 389.765 78.0896C390.287 76.3909 390.193 75.2327 389.488 74.5532C388.061 73.1634 384.869 74.6922 384.508 74.8621C383.615 75.2327 382.61 75.7114 381.488 76.3445C377.791 78.4138 373.361 83.2936 368.232 88.9301C360.542 97.408 350.977 107.955 339.235 114.349C331.68 118.456 322.965 117.839 315.32 112.681C310.796 109.608 306.727 104.62 304.145 99.6935L303.123 100.234C305.811 105.639 310.375 110.72 315.282 114.04C323.303 119.46 331.842 119.707 339.797 115.383C351.716 108.897 361.359 98.2728 369.109 89.7332C374.165 84.1584 378.535 79.3404 382.06 77.3638C386.762 74.7386 388.106 75.2636 388.466 75.6033C388.921 76.0511 388.844 77.1012 388.489 78.1976C388.35 78.5837 388.173 79.016 387.944 79.5102L387.334 80.7302C382.854 88.9611 368.73 104.064 368.581 104.218L369.442 105.037C370.086 104.342 385.158 88.2198 388.949 80.1434C389.494 79.6956 390.36 79.0624 391.365 78.4601C391.365 78.4601 391.397 78.4447 391.448 78.4138C391.786 78.2131 392.141 78.0123 392.502 77.8424C393.624 77.2865 395.356 76.6225 396.677 76.9931C396.682 76.9931 396.688 76.9931 396.693 76.9931C396.776 77.024 396.849 77.055 396.926 77.0859C397.776 77.5028 398.292 78.5065 398.465 80.1125C398.259 86.6756 386.317 99.6936 376.908 109.299L377.752 110.133C391.82 95.7404 398.698 86.6602 399.558 81.1009C400.085 80.8384 400.919 80.5141 401.8 80.2979C402.155 80.2052 402.516 80.1434 402.867 80.1125C403.239 80.0816 403.66 80.0817 404.077 80.1744C404.083 80.1744 404.083 80.1744 404.088 80.1744C404.105 80.1744 404.122 80.1897 404.143 80.1897C404.488 80.2669 404.793 80.4214 405.043 80.653C405.625 81.1935 406.226 82.5988 405.298 86.2123C404.804 87.7411 403.987 89.6714 402.683 92.1114C396.872 103.014 385.269 113.391 385.152 113.499L385.935 114.379C386.052 114.271 397.46 104.064 403.45 93.1614L404.143 92.6055C404.177 92.5901 404.21 92.5592 404.25 92.5283C404.964 92.0033 406.093 91.4628 406.497 91.7562C406.726 91.9261 407.707 93.1769 404.571 101.191C401.674 108.604 393.74 120.788 382.554 131.289C373.194 140.06 358.1 150.932 339.325 152.862C328.639 153.943 308.459 153.372 293.314 137.203C293.081 136.956 292.91 136.755 292.681 136.493C292.41 136.771 291.893 137.389 291.893 137.389C292.132 137.667 292.209 137.759 292.455 138.006C307.942 154.545 328.543 155.148 339.442 154.036C353.536 152.584 365.577 146.206 374.732 139.381C377.985 136.956 380.872 134.47 383.358 132.138C395.455 120.803 402.939 108.604 405.67 101.624C408.917 93.3312 408.096 91.4782 407.196 90.8141" fill="#FFFDFA"/>
<path d="M241.764 38.7903L235.93 38.9004L238.85 23.1353L240.105 23.3716L237.462 37.5932L241.737 37.5145L241.764 38.7903Z" fill="#FFFDFA"/>
<path d="M248.753 49.6655C248.678 49.903 248.6 50.1446 248.52 50.3917L247.32 49.975C248.12 47.6735 248.089 45.8879 247.232 44.6729C246.017 42.9341 243.395 42.8721 243.376 42.8743L243.387 41.6035C243.526 41.6094 246.671 41.6591 248.273 43.9353C249.28 45.3657 249.437 47.2817 248.753 49.6655Z" fill="#FFFDFA"/>
<path d="M257.968 43.0626C256.948 43.6994 255.637 42.8715 255.788 41.6774C255.982 40.1649 255.998 37.7289 255.516 33.7645C254.327 23.9888 232.694 37.9518 221.446 24.0524C210.205 10.169 233.415 -4.89256 237.524 1.52374C241.636 7.92412 234.887 9.8506 239.378 11.395C243.873 12.9234 271.081 11.1562 266.878 34.6562C266.878 34.6562 261.916 40.5789 257.968 43.0626" fill="#FFF6E8"/>
<path d="M269.167 40.4818C268.462 42.7123 266.519 44.0569 264.282 43.5349L263.915 44.7056C259.48 55.0356 247.833 60.5249 236.913 57.0446C231.278 55.257 226.676 51.3813 223.955 46.1293C221.235 40.8773 220.725 34.8817 222.513 29.25C224.3 23.6184 228.175 19.0149 233.426 16.294C236.619 14.6329 240.083 13.7945 243.581 13.7945C245.834 13.7945 248.093 14.1425 250.302 14.8386C255.938 16.6261 260.534 20.5019 263.254 25.7539C264.52 28.2059 265.303 30.8003 265.602 33.4579C265.403 33.4421 265.208 33.4263 265.014 33.4105C265.148 33.8376 265.175 34.2805 265.086 34.6918C265.48 34.7076 265.88 34.771 266.274 34.8976C268.612 35.6411 269.911 38.1405 269.167 40.4818V40.4818ZM266.908 33.7743C266.63 30.8161 265.796 27.9054 264.387 25.1687C261.511 19.6161 256.643 15.5189 250.687 13.6364C244.729 11.738 238.39 12.2758 232.838 15.1549C227.287 18.0341 223.19 22.9064 221.302 28.8703C219.409 34.8184 219.953 41.1619 222.829 46.7145C225.704 52.2671 230.568 56.3643 236.524 58.2626C237.063 58.4366 237.601 58.5791 238.134 58.7056V67.7227H239.405V58.9745C240.804 59.2276 242.203 59.3699 243.592 59.3699C244.985 59.3699 246.367 59.2277 247.722 58.9904V67.7227H248.993V58.7214C256.132 57.0129 262.316 51.9982 265.248 44.8478C267.545 44.7213 269.639 43.1868 270.377 40.8613C271.304 37.9506 269.749 34.8184 266.908 33.7743" fill="#FFF6E8"/>
<path d="M263.603 37.2361C261.876 38.6307 262.015 41.3415 262.021 41.4512L263.292 41.3728C263.292 41.3572 263.198 39.1947 264.408 38.2232C265.096 37.6591 266.14 37.5652 267.5 37.9256L267.833 36.7033C266.057 36.2176 264.635 36.39 263.603 37.2361" fill="#FFF6E8"/>
<path d="M321.039 111.821C307.838 60.3957 248.222 65.7354 247.699 65.7974C247.699 65.7974 247.427 65.9527 246.988 66.1855C244.646 67.4118 241.816 67.3342 239.589 65.8907C239.477 65.8286 239.411 65.782 239.406 65.782C239.406 65.782 177.939 60.1629 164.683 111.821H193.361L184.819 146.56L296.696 146.575L290.656 111.821H321.039Z" fill="#EE896C"/>
<path d="M358.335 492.971H224.139C224.139 492.971 226.849 472.903 260.895 463.443H347.969C353.272 471.898 357.445 481.88 358.335 492.971" fill="#EE896C"/>
<path d="M232.51 492.971H98.3154C98.3154 492.971 101.019 472.903 135.066 463.443H222.141C227.447 471.898 231.622 481.88 232.51 492.971Z" fill="#EE896C"/>
<path d="M225.332 493.037L224.066 492.907C225.243 481.455 237.134 474.157 237.639 473.846L238.294 474.937C238.177 475.002 226.443 482.221 225.332 493.037Z" fill="#FFFDFA"/>
<path d="M1.5 491.5H415.5" stroke="#FFFDFA" stroke-width="3" stroke-linecap="round"/>
</svg>
