<svg width="317" height="407" viewBox="0 0 317 407" fill="none" xmlns="http://www.w3.org/2000/svg">
<g clip-path="url(#clip0_218_1102)">
<path fill-rule="evenodd" clip-rule="evenodd" d="M61.4835 138.209L57.0109 130.462C55.4528 127.763 52.5637 127.174 49.8587 128.735L42.5597 132.949C39.8547 134.511 38.9158 137.299 40.479 140.007L44.9516 147.753C46.5149 150.461 49.3994 151.043 52.1043 149.481L59.4033 145.267C62.1083 143.705 63.0467 140.916 61.4835 138.209Z" stroke="#EE896C" stroke-width="1.5" stroke-linecap="round" stroke-linejoin="round"/>
<path fill-rule="evenodd" clip-rule="evenodd" d="M53.4284 137.69C53.0461 137.028 48.7683 136.673 48.6417 137.254C48.5151 137.835 50.7922 141.856 51.4126 142.054C52.034 142.253 53.8107 138.353 53.4284 137.69Z" stroke="#EE896C" stroke-width="1.5" stroke-linecap="round" stroke-linejoin="round"/>
</g>
<g clip-path="url(#clip1_218_1102)">
<path fill-rule="evenodd" clip-rule="evenodd" d="M224.016 184.452L227.463 176.197C228.663 173.322 227.38 170.667 224.498 169.463L216.721 166.216C213.838 165.012 211.052 165.956 209.847 168.842L206.401 177.096C205.196 179.981 206.483 182.627 209.365 183.831L217.142 187.079C220.024 188.282 222.811 187.337 224.016 184.452Z" stroke="#EE896C" stroke-width="1.5" stroke-linecap="round" stroke-linejoin="round"/>
<path fill-rule="evenodd" clip-rule="evenodd" d="M219.543 177.733C219.837 177.027 217.525 173.411 216.986 173.662C216.448 173.914 214.632 178.163 214.851 178.776C215.07 179.391 219.248 178.438 219.543 177.733Z" stroke="#EE896C" stroke-width="1.5" stroke-linecap="round" stroke-linejoin="round"/>
</g>
<path d="M169.16 110.556L169.599 96.0974L185.557 97.7827L182.977 112.014C182.813 112.919 181.978 113.544 181.063 113.448L170.732 112.356C169.817 112.26 169.132 111.475 169.16 110.556Z" stroke="#EE896C" stroke-width="1.5"/>
<path opacity="0.4" d="M179.234 105.185C179.089 106.562 177.855 107.56 176.478 107.414C175.101 107.269 174.102 106.035 174.248 104.658C174.393 103.281 175.627 102.282 177.004 102.428C178.381 102.573 179.38 103.807 179.234 105.185Z" fill="#EE896C"/>
<path d="M184.901 93.3015C186.211 93.4398 187.16 94.6133 187.022 95.9226C186.883 97.232 185.71 98.1813 184.4 98.043L177.544 97.3189L170.687 96.5948C169.378 96.4565 168.429 95.2829 168.567 93.9736C168.705 92.6643 169.879 91.7149 171.188 91.8532C171.961 91.9348 172.582 91.3762 172.721 90.7059C173.289 87.9624 175.858 86.0436 178.703 86.3441C181.548 86.6446 183.66 89.0577 183.642 91.8593C183.637 92.5437 184.128 93.2198 184.901 93.3015Z" stroke="#EE896C" stroke-width="1.5"/>
<g opacity="0.4">
<path d="M193.105 114.697L189.872 117.577C189.448 117.954 188.778 117.648 188.785 117.081L188.904 108.002C188.911 107.486 189.487 107.182 189.917 107.467L197.448 112.455C197.92 112.767 197.798 113.49 197.25 113.631L193.105 114.697" stroke="#EE896C" stroke-width="1.5" stroke-linecap="round" stroke-linejoin="round"/>
</g>
<path d="M287.654 123.709L287.158 126.123" stroke="#EE896C" stroke-width="1.5" stroke-linecap="round" stroke-linejoin="round"/>
<path d="M284.886 137.182L284.471 139.201" stroke="#EE896C" stroke-width="1.5" stroke-linecap="round" stroke-linejoin="round"/>
<path d="M285.59 133.756L286.578 128.948" stroke="#EE896C" stroke-width="1.5" stroke-linecap="round" stroke-linejoin="round"/>
<path fill-rule="evenodd" clip-rule="evenodd" d="M289.266 140.41C291.083 140.784 292.854 139.632 293.222 137.838L293.754 135.253C292.551 135.006 291.779 133.85 292.023 132.663C292.267 131.475 293.432 130.717 294.635 130.964L295.165 128.377C295.534 126.583 294.36 124.827 292.544 124.454L279.178 121.708C277.362 121.335 275.591 122.485 275.222 124.28L274.672 126.95C275.875 127.197 276.663 128.269 276.42 129.457C276.176 130.644 275.011 131.402 273.808 131.155L273.277 133.74C272.908 135.535 274.082 137.29 275.899 137.664L289.266 140.41Z" stroke="#EE896C" stroke-width="1.5" stroke-linecap="round" stroke-linejoin="round"/>
<path d="M315.145 238.227C314.721 237.754 314.201 237.471 313.729 237.329C314.201 235.25 314.957 230.666 312.785 228.729C311.416 227.5 309.859 226.98 308.207 227.217C306.507 227.453 304.902 228.445 303.628 229.579C304.289 227.264 304.714 224.523 303.958 222.586C303.533 221.546 302.778 220.79 301.74 220.412C294.848 217.908 288.523 225.09 286.587 227.595C286.068 227.169 285.36 226.744 284.274 226.555C281.159 225.941 277.099 227.5 272.237 231.233C267.659 234.73 263.458 241.96 258.548 250.371C250.76 263.79 241.083 280.518 225.836 287.748C212.289 294.127 200.535 279.431 200.441 279.242L199.119 280.282C199.261 280.423 211.864 296.253 226.592 289.26C242.31 281.841 252.129 264.83 260.059 251.174C264.827 242.905 268.98 235.817 273.276 232.556C278.799 228.351 282.103 227.878 283.897 228.209C284.794 228.351 285.313 228.729 285.643 229.012L266.62 258.876L268.036 259.774L287.39 229.39C287.531 229.154 294.329 219.515 301.173 221.972C301.74 222.161 302.165 222.586 302.401 223.2C303.392 225.563 301.74 230.383 300.748 232.651L281.867 263.082L283.33 263.979L301.928 233.974L301.976 234.021C302.023 233.974 305.044 229.343 308.443 228.871C309.623 228.729 310.661 229.06 311.652 230.005C313.069 231.28 312.502 235.391 311.841 237.754L292.96 267.523L294.376 268.421L313.069 238.935C313.305 238.983 313.588 239.077 313.871 239.408C314.579 240.211 315.429 242.621 313.352 249.993C309.245 264.594 288.192 307.357 241.178 329.897C229.66 335.426 219.086 335.662 209.787 330.653C181.418 315.343 173.063 255.899 172.968 255.285L171.269 255.521C171.269 255.663 173.393 270.878 179.011 287.795C186.61 310.618 196.712 325.55 208.938 332.165C213.611 334.717 218.614 335.993 223.854 335.993C229.566 335.993 235.56 334.48 241.838 331.504C289.467 308.728 310.756 265.35 314.957 250.512C316.845 244.18 316.845 240.069 315.145 238.227Z" fill="white"/>
<path d="M133.27 204.441L141.106 204.582L137.188 183.46L135.536 183.744L139.029 202.834L133.317 202.74L133.27 204.441Z" fill="white"/>
<path d="M119.824 215.587C119.553 215.798 119.32 216.037 119.087 216.276L120.294 217.508C122.606 215.222 124.785 214.241 126.764 214.575C129.576 215.05 131.149 218.185 131.187 218.213L132.727 217.467C132.668 217.307 130.756 213.515 127.072 212.871C124.742 212.456 122.317 213.374 119.824 215.587Z" fill="white"/>
<path d="M109.905 210.012C111.274 210.863 113.02 209.776 112.831 208.17C112.595 206.138 112.548 202.877 113.209 197.538C114.814 184.401 143.797 203.161 158.902 184.543C174.007 165.926 142.853 145.701 137.33 154.301C131.807 162.901 140.87 165.453 134.828 167.532C128.975 169.564 94.4221 167.343 97.5847 196.073C97.7735 197.774 98.5288 199.381 99.6617 200.656C101.975 203.255 106.27 207.744 109.905 210.012Z" fill="#FFF6E8"/>
<path d="M159.091 191.021C156.542 183.035 151.066 176.514 143.608 172.639C136.15 168.765 127.653 168.056 119.676 170.607C111.698 173.159 105.184 178.64 101.314 186.106C99.4254 189.745 98.2925 193.667 97.9149 197.636C94.0914 199.054 92.0144 203.259 93.2889 207.134C94.2802 210.252 97.0652 212.284 100.181 212.473C104.099 222.066 112.406 228.823 121.989 231.091V243.188H123.688V231.469C125.482 231.8 127.37 231.989 129.211 231.989C131.052 231.989 132.94 231.8 134.828 231.469V243.188H136.527V231.091C137.235 230.902 137.991 230.713 138.699 230.477C146.676 227.925 153.19 222.444 157.061 214.978C160.884 207.512 161.64 199.006 159.091 191.021ZM155.503 214.174C151.869 221.215 145.685 226.413 138.132 228.823C123.499 233.454 107.875 226.129 101.927 212.284L101.455 210.725C98.4341 211.434 95.8379 209.591 94.8939 206.614C93.9026 203.495 95.6491 200.093 98.7645 199.101C99.2838 198.912 99.8502 198.865 100.369 198.817C100.228 198.25 100.275 197.683 100.464 197.116C100.181 197.116 99.9446 197.163 99.6614 197.163C100.086 193.62 101.125 190.123 102.824 186.815C106.459 179.774 112.642 174.577 120.195 172.167C123.169 171.222 126.19 170.749 129.211 170.749C133.884 170.749 138.557 171.883 142.853 174.104C149.886 177.743 155.078 183.933 157.486 191.493C159.846 199.101 159.185 207.134 155.503 214.174Z" fill="#FFF6E8"/>
<path d="M102.352 202.22C100.983 201.086 99.0477 200.85 96.6875 201.511L97.1595 203.165C99.0005 202.645 100.369 202.787 101.313 203.543C102.918 204.866 102.824 207.748 102.824 207.796L104.523 207.89C104.476 207.701 104.665 204.11 102.352 202.22Z" fill="#FFF6E8"/>
<path d="M198.93 327.677L183.306 323.707L183.353 342.939V344.404H133.789L135.347 355.698C138.038 355.887 140.634 356.076 143.136 356.265C152.907 356.926 161.403 357.493 166.407 359.525C167.918 360.139 169.192 360.754 170.278 361.368C170.75 361.604 174.809 363.542 174.526 365.999C174.526 366.14 174.479 366.235 174.432 366.329C174.384 366.518 174.29 366.707 174.196 366.849H171.835C172.26 366.518 172.544 366.14 172.591 365.762C172.685 365.148 172.119 363.4 165.793 360.848C161.026 358.911 152.671 358.344 143.041 357.682C128.267 356.69 109.81 355.461 93.8552 348.751C93.572 348.61 93.2416 348.515 92.9584 348.373C92.6751 348.232 92.3919 348.137 92.1087 347.995C91.8255 347.854 91.5895 347.759 91.3062 347.617C83.2344 343.412 78.2309 336.513 76.6731 327.299L76.2955 319.029H75.9651L34.426 316.761L33.6235 316.714C39.0047 239.361 123.688 239.361 123.688 239.361C128.691 247.536 134.828 240.117 134.828 240.117C182.031 248.198 208.182 283.354 208.182 283.354L198.93 327.677Z" fill="#EE896C"/>
<path d="M181.89 386.837C181.371 388.869 179.247 390.617 175.329 391.987C173.818 392.602 172.072 393.216 169.995 393.783C170.844 394.255 171.647 394.964 171.647 396.004C171.647 396.76 171.269 397.799 169.098 399.122C168.343 399.548 167.398 400.068 166.171 400.587C164.472 401.296 162.253 402.099 159.374 402.95C150.075 405.691 131.76 407.77 110.707 404.698C106.364 404.037 101.597 403.139 96.546 401.816C82.3849 398.13 66.4301 391.231 53.9212 378.473C51.2778 375.78 48.2095 372.047 45.1885 367.463C44.9525 367.085 44.7165 366.754 44.4805 366.376C36.8335 354.232 30.0834 336.56 33.4821 316.761L34.2845 316.808L34.9926 316.855C30.3194 344.262 45.5189 367.794 55.0069 377.433C71.6697 394.397 94.6106 400.824 110.896 403.186C130.391 406.021 149.036 404.415 158.902 401.485C161.876 400.635 164.047 399.831 165.605 399.17C165.652 399.17 165.699 399.122 165.746 399.122C169.806 397.374 170.042 396.335 170.042 396.051C170.042 395.437 168.579 394.728 167.493 394.444C167.446 394.444 167.398 394.397 167.351 394.397L166.266 394.161C150.405 396.713 131.052 393.452 130.863 393.405L131.146 391.94C131.335 391.987 151.019 395.342 166.738 392.602C170.231 391.987 172.874 391.279 174.809 390.57C179.199 388.68 180.191 387.026 180.285 385.986C180.332 385.608 180.238 385.23 180.096 384.852C179.813 384.238 179.388 383.718 178.963 383.293C178.727 383.057 178.444 382.773 178.114 382.584C178.066 382.584 178.066 382.537 178.066 382.537C177.17 381.828 176.178 381.261 175.517 380.977C169.145 384.427 154.465 384.71 128.786 382.064L128.975 380.599C146.157 382.395 168.815 384.049 175.706 379.135C177.264 377.717 177.878 376.394 177.594 375.213C177.594 375.118 177.547 375.071 177.5 374.976C176.839 373.37 174.762 372.141 173.299 371.48C172.874 371.291 172.402 371.102 171.93 370.913C171.836 370.865 171.836 370.865 171.836 370.865C170.467 370.346 169.098 369.968 168.248 369.779C157.014 372.33 128.739 370.015 127.511 369.92L127.653 368.455C127.936 368.455 154.417 370.629 166.36 368.644L168.059 368.314C168.72 368.172 169.334 367.983 169.853 367.841C170.561 367.558 171.222 367.227 171.741 366.896C172.166 366.565 172.449 366.187 172.496 365.809C172.591 365.195 172.024 363.447 165.699 360.895C160.932 358.958 152.577 358.391 142.947 357.729C128.172 356.737 109.716 355.508 93.7609 348.798C93.4777 348.657 93.1473 348.562 92.8641 348.42C92.5809 348.279 92.2976 348.184 92.0144 348.042C91.7312 347.901 91.4952 347.806 91.212 347.664C83.1402 343.506 77.9006 336.654 76.2956 327.393C76.1068 326.211 75.9652 324.936 75.8708 323.66C75.7764 322.148 75.7764 320.636 75.8708 319.029C76.154 312.886 77.759 306.413 80.4968 300.979L81.8657 301.546C78.8446 307.877 76.9565 315.769 77.3341 322.573C78.0422 334.103 84.2258 343.128 94.3746 347.381C106.931 352.626 121.139 354.469 133.79 355.508C134.262 355.555 134.781 355.603 135.253 355.603C137.943 355.792 140.54 355.981 143.041 356.17C152.813 356.831 161.309 357.398 166.313 359.43C167.823 360.044 169.098 360.659 170.183 361.273C170.655 361.509 174.715 363.447 174.432 365.904C174.432 366.046 174.385 366.14 174.337 366.235C174.29 366.424 174.196 366.613 174.101 366.754C174.007 366.943 173.865 367.132 173.677 367.274C173.11 367.888 172.213 368.408 170.986 368.881C171.411 369.022 171.93 369.164 172.402 369.353C172.638 369.448 173.346 369.684 174.243 370.157C176.414 371.196 178.491 372.661 179.01 374.646C179.341 375.685 179.247 376.772 178.68 377.812C178.302 378.568 177.736 379.276 176.934 379.891C177.5 380.221 178.255 380.647 178.963 381.214C179.01 381.261 179.766 381.781 180.474 382.584C180.521 382.631 180.521 382.631 180.568 382.679C180.851 383.057 181.135 383.435 181.323 383.813V383.86C181.323 383.86 181.323 383.907 181.371 383.907C181.937 384.899 182.126 385.844 181.89 386.837Z" fill="white"/>
<path fill-rule="evenodd" clip-rule="evenodd" d="M187.05 343.128C189.047 341.937 190.384 339.755 190.384 337.261C190.384 333.49 187.328 330.433 183.557 330.433C182.918 330.433 182.299 330.521 181.712 330.686C181.177 328.429 179.15 326.751 176.73 326.751L176.73 326.75C176.73 323.922 174.437 321.63 171.609 321.63C169.412 321.63 167.539 323.013 166.812 324.956C165.878 323.959 164.549 323.337 163.075 323.337H163.075V323.337C163.075 320.509 160.783 318.216 157.955 318.216C155.127 318.216 152.834 320.509 152.834 323.337C152.834 323.867 152.915 324.379 153.065 324.86C152.136 323.92 150.847 323.337 149.421 323.337C147.059 323.337 145.071 324.935 144.48 327.109C143.896 326.878 143.26 326.751 142.593 326.751C139.765 326.751 137.473 329.043 137.473 331.871C137.473 332.473 137.577 333.05 137.767 333.586C137.67 333.581 137.572 333.578 137.473 333.578C134.645 333.578 132.353 335.871 132.353 338.699C132.353 340.594 133.382 342.249 134.913 343.134V344.177H187.824L187.05 343.128Z" fill="white"/>
<path d="M190.047 345.11L188.498 359.146L187.696 366.328L187.554 367.415L185.477 385.466L183.978 398.764C183.864 399.775 183.009 400.539 181.991 400.539H165.746L166.265 399.075H181.469C181.977 399.075 182.405 398.693 182.462 398.187L185.949 367.368L186.091 366.281L188.466 345.469C188.533 344.876 188.069 344.356 187.472 344.356H134.842C134.236 344.356 133.769 344.892 133.852 345.493L135.253 355.649L135.347 356.169L133.931 356.358L133.837 355.508L132.443 345.158C132.281 343.958 133.214 342.891 134.425 342.891H188.059C189.251 342.891 190.178 343.926 190.047 345.11Z" fill="white"/>
<path d="M226.263 381.598L231.006 380.72L228.307 384.724L229.402 385.477L232.101 381.473L232.98 386.216L234.335 385.965L233.457 381.221L237.411 383.993L238.164 382.898L234.209 380.126L238.953 379.247L238.713 377.954L233.97 378.833L236.669 374.828L235.574 374.075L232.863 378.018L231.984 373.275L230.629 373.526L231.508 378.269L227.565 375.559L226.812 376.654L230.766 379.426L226.023 380.305L226.263 381.598Z" fill="white"/>
<path d="M56.0753 228.429L55.3005 228.944C55.2479 228.883 50.85 221.932 44.3921 216.401C39.4076 212.136 34.684 209.821 30.1868 209.538C31.1881 211.056 31.9632 212.559 32.4214 214.124C33.6174 218.127 32.6847 221.699 29.6813 224.417C25.4635 228.244 20.4376 228.209 17.3953 227.033C14.7408 225.997 13.0362 223.976 12.8033 221.631C12.4762 218.199 15.2382 214.47 20.5589 211.117C23.0266 209.554 25.6991 208.717 28.4068 208.591C24.5483 203.666 18.1344 199.53 12.1766 198.606L12.4098 197.713C18.7594 198.721 25.6281 203.258 29.6284 208.591C34.5333 208.731 39.7356 211.108 45.0959 215.682C51.6024 221.331 56.053 228.342 56.0753 228.429ZM13.7596 220.958C13.774 221.158 13.7621 221.328 13.7764 221.527C13.9767 223.53 15.4749 225.252 17.7981 226.152C20.592 227.226 25.2484 227.263 29.1635 223.699C31.8644 221.244 32.7167 218.008 31.6402 214.326C31.1597 212.673 30.2794 211.05 29.169 209.468C26.3825 209.502 23.714 210.284 21.1293 211.895C16.3755 214.861 13.8228 218.037 13.7596 220.958Z" fill="white"/>
<path d="M84.4534 171.455L83.4016 171.527C83.1105 167.318 83.9663 164.294 85.9828 162.393C88.3764 160.14 91.471 160.513 91.6125 160.477L91.4799 161.551C91.4799 161.551 88.7045 161.248 86.7131 163.188C84.9573 164.811 84.1819 167.618 84.4534 171.455Z" fill="#EE896C"/>
<path d="M79.7838 168.632L78.7209 168.601C78.9928 163.645 80.5003 159.928 83.2797 157.592C86.955 154.514 91.3678 154.974 91.5593 155.015L91.4267 156.09L91.4736 155.565L91.4267 156.09C91.3629 156.076 87.2443 155.647 83.9323 158.436C81.4387 160.534 80.0253 163.971 79.7838 168.632Z" fill="#EE896C"/>
<path d="M96.341 168.314L96.2553 168.938L96.2786 168.625L96.2553 168.938C96.2553 168.938 94.5959 168.757 93.3886 169.908C92.3495 170.915 91.9113 172.575 92.0739 174.889L91.4418 174.922C91.2545 172.409 91.7856 170.559 92.9718 169.425C94.3894 168.093 96.2446 168.287 96.341 168.314Z" fill="#EE896C"/>
<mask id="path-28-inside-1_218_1102" fill="white">
<path d="M96.3113 165.006L96.2437 165.651L96.267 165.338L96.2437 165.651C96.2046 165.648 93.7231 165.407 91.7494 167.073C90.2354 168.379 89.3947 170.423 89.2455 173.226L88.5981 173.199C88.7408 170.218 89.6743 167.984 91.3326 166.59C93.5587 164.706 96.2149 164.98 96.3113 165.006Z"/>
</mask>
<path d="M96.3113 165.006L96.2437 165.651L96.267 165.338L96.2437 165.651C96.2046 165.648 93.7231 165.407 91.7494 167.073C90.2354 168.379 89.3947 170.423 89.2455 173.226L88.5981 173.199C88.7408 170.218 89.6743 167.984 91.3326 166.59C93.5587 164.706 96.2149 164.98 96.3113 165.006Z" fill="#EE896C"/>
<path d="M96.3113 165.006L107.251 166.153L108.222 156.895L99.2511 154.407L96.3113 165.006ZM96.2437 165.651L85.274 164.836L107.184 166.798L96.2437 165.651ZM96.2437 165.651L95.4403 176.621L106.399 177.424L107.214 166.466L96.2437 165.651ZM91.7494 167.073L84.6543 158.667L84.6092 158.705L84.5645 158.744L91.7494 167.073ZM89.2455 173.226L88.7748 184.216L99.6514 184.682L100.23 173.811L89.2455 173.226ZM88.5981 173.199L77.6107 172.673L77.0821 183.715L88.1274 184.189L88.5981 173.199ZM91.3326 166.59L98.4103 175.011L98.4241 174.999L98.438 174.987L91.3326 166.59ZM85.3712 163.86L85.3037 164.504L107.184 166.798L107.251 166.153L85.3712 163.86ZM107.214 166.466L107.237 166.153L85.2972 164.523L85.274 164.836L107.214 166.466ZM85.2972 164.523L85.274 164.836L107.214 166.466L107.237 166.153L85.2972 164.523ZM97.0472 154.68C97.2145 154.692 96.9064 154.668 96.6452 154.655C96.3745 154.642 96.049 154.634 95.6776 154.638C94.9447 154.647 93.9858 154.704 92.8851 154.891C90.7446 155.253 87.5906 156.189 84.6543 158.667L98.8444 175.479C97.8819 176.291 96.9555 176.515 96.5589 176.582C96.3303 176.62 96.1224 176.635 95.9274 176.637C95.8251 176.638 95.7153 176.636 95.5955 176.63C95.4852 176.625 95.2632 176.608 95.4403 176.621L97.0472 154.68ZM84.5645 158.744C80.0203 162.664 78.5066 168.029 78.2611 172.642L100.23 173.811C100.256 173.331 100.319 173.379 100.171 173.744C99.9986 174.165 99.6197 174.811 98.9343 175.402L84.5645 158.744ZM89.7163 162.236L89.0689 162.209L88.1274 184.189L88.7748 184.216L89.7163 162.236ZM99.5856 173.725C99.6097 173.219 99.6833 173.211 99.5576 173.514C99.4126 173.863 99.0682 174.458 98.4103 175.011L84.255 158.169C79.4969 162.169 77.8451 167.776 77.6107 172.673L99.5856 173.725ZM98.438 174.987C97.6696 175.637 96.8996 175.852 96.4812 175.923C96.2596 175.961 96.0408 175.978 95.8077 175.978C95.6894 175.978 95.5395 175.974 95.3526 175.96C95.2628 175.953 95.1306 175.942 94.9639 175.922C94.8844 175.913 94.753 175.896 94.5886 175.87C94.507 175.857 94.3795 175.836 94.2233 175.806C94.1102 175.784 93.7833 175.72 93.3715 175.606L99.2511 154.407C98.584 154.222 98.0294 154.141 98.0011 154.136C97.8208 154.108 97.6688 154.089 97.564 154.076C97.3467 154.05 97.1454 154.032 96.9694 154.019C96.6101 153.993 96.2194 153.978 95.8038 153.978C94.976 153.978 93.9359 154.038 92.76 154.24C90.4328 154.64 87.2217 155.659 84.2273 158.193L98.438 174.987Z" fill="#EE896C" mask="url(#path-28-inside-1_218_1102)"/>
<path fill-rule="evenodd" clip-rule="evenodd" d="M272.878 49.1443C274.339 50.8734 274.149 53.4422 272.453 54.8805C272.328 54.9866 266.015 59.8653 266.015 59.8653C264.377 61.3614 261.817 61.2196 260.297 59.5463C260.184 59.4217 254.632 52.2621 254.632 52.2621C253.166 50.5334 253.351 47.9622 255.046 46.5203C255.172 46.4118 261.476 41.5387 261.476 41.5387C263.124 40.0379 265.696 40.1857 267.221 41.8691C267.33 41.9906 272.878 49.1443 272.878 49.1443Z" stroke="#EE896C" stroke-width="1.5" stroke-linecap="round" stroke-linejoin="round"/>
<path d="M268.673 43.7204L269.667 38.7362C269.914 37.501 271.483 37.1931 272.279 38.2208L277.831 45.3974C278.627 46.4252 277.935 47.8642 276.679 47.795L271.616 47.5126" stroke="#EE896C" stroke-width="1.5" stroke-linecap="round" stroke-linejoin="round"/>
<path d="M114.178 85.1789C114.296 85.5496 114.694 85.7528 115.064 85.631V85.631C117.69 84.7655 120.503 86.2019 121.342 88.8363C122.178 91.4619 120.736 94.2855 118.119 95.148L108.347 98.3688C108.12 98.4437 107.873 98.3173 107.8 98.0894L104.678 88.2853C103.842 85.6597 105.283 82.8362 107.9 81.9736C110.526 81.1082 113.339 82.5445 114.178 85.1789V85.1789Z" stroke="#EE896C" stroke-width="1.5"/>
<defs>
<clipPath id="clip0_218_1102">
<rect width="25.4524" height="25.4524" fill="white" transform="translate(33.5972 134.45) rotate(-30)"/>
</clipPath>
<clipPath id="clip1_218_1102">
<rect width="25.4524" height="25.4524" fill="white" transform="translate(210.092 160) rotate(22.6642)"/>
</clipPath>
</defs>
</svg>
