<svg width="321" height="326" viewBox="0 0 321 326" fill="none" xmlns="http://www.w3.org/2000/svg">
<g clip-path="url(#clip0_115_930)">
<path fill-rule="evenodd" clip-rule="evenodd" d="M61.4835 57.2088L57.0109 49.4621C55.4528 46.7634 52.5637 46.1735 49.8587 47.7353L42.5597 51.9494C39.8547 53.5111 38.9158 56.2991 40.479 59.0067L44.9516 66.7535C46.5149 69.4611 49.3994 70.0429 52.1043 68.4812L59.4033 64.2671C62.1083 62.7054 63.0467 59.9165 61.4835 57.2088Z" stroke="#EE896C" stroke-width="1.5" stroke-linecap="round" stroke-linejoin="round"/>
<path fill-rule="evenodd" clip-rule="evenodd" d="M53.4284 56.6904C53.0461 56.0282 48.7683 55.6734 48.6417 56.2543C48.5151 56.8353 50.7922 60.8563 51.4126 61.0538C52.034 61.2528 53.8107 57.3526 53.4284 56.6904Z" stroke="#EE896C" stroke-width="1.5" stroke-linecap="round" stroke-linejoin="round"/>
</g>
<g clip-path="url(#clip1_115_930)">
<path fill-rule="evenodd" clip-rule="evenodd" d="M224.016 103.582L227.463 95.3276C228.663 92.452 227.38 89.7972 224.498 88.5936L216.721 85.346C213.838 84.1425 211.052 85.0868 209.847 87.9719L206.401 96.2263C205.196 99.1114 206.483 101.758 209.365 102.961L217.142 106.209C220.024 107.412 222.811 106.467 224.016 103.582Z" stroke="#EE896C" stroke-width="1.5" stroke-linecap="round" stroke-linejoin="round"/>
<path fill-rule="evenodd" clip-rule="evenodd" d="M219.543 96.8631C219.837 96.1575 217.525 92.5411 216.986 92.7928C216.448 93.0444 214.632 97.2936 214.851 97.9067C215.07 98.5214 219.248 97.5687 219.543 96.8631Z" stroke="#EE896C" stroke-width="1.5" stroke-linecap="round" stroke-linejoin="round"/>
</g>
<path d="M169.16 29.5557L169.599 15.0974L185.557 16.7827L182.977 31.0136C182.813 31.9188 181.978 32.5442 181.063 32.4476L170.732 31.3565C169.817 31.2599 169.132 30.4747 169.16 29.5557Z" stroke="#EE896C" stroke-width="1.5"/>
<path opacity="0.4" d="M179.234 24.1845C179.089 25.5615 177.855 26.5599 176.478 26.4145C175.101 26.2691 174.102 25.0349 174.248 23.6579C174.393 22.2808 175.627 21.2824 177.004 21.4279C178.381 21.5733 179.38 22.8075 179.234 24.1845Z" fill="#EE896C"/>
<path d="M183.642 10.8593C183.637 11.5437 184.128 12.2198 184.901 12.3015C186.211 12.4398 187.16 13.6133 187.022 14.9226C186.883 16.232 185.71 17.1813 184.4 17.043L177.544 16.3189L170.687 15.5948C169.378 15.4565 168.429 14.2829 168.567 12.9736C168.705 11.6643 169.879 10.7149 171.188 10.8532C171.961 10.9348 172.582 10.3762 172.721 9.70594C173.289 6.96243 175.858 5.04358 178.703 5.34407C181.548 5.64456 183.66 8.05772 183.642 10.8593Z" stroke="#EE896C" stroke-width="1.5"/>
<g opacity="0.4">
<path d="M193.105 33.6967L189.872 36.5768C189.448 36.9542 188.778 36.6485 188.785 36.0808L188.904 27.0025C188.911 26.4861 189.487 26.1815 189.917 26.4671L197.448 31.4547C197.92 31.7671 197.798 32.4899 197.25 32.6308L193.105 33.6967" stroke="#EE896C" stroke-width="1.5" stroke-linecap="round" stroke-linejoin="round"/>
</g>
<path d="M287.654 42.7094L287.158 45.1228" stroke="#EE896C" stroke-width="1.5" stroke-linecap="round" stroke-linejoin="round"/>
<path d="M284.886 56.182L284.471 58.2005" stroke="#EE896C" stroke-width="1.5" stroke-linecap="round" stroke-linejoin="round"/>
<path d="M285.59 52.756L286.578 47.9482" stroke="#EE896C" stroke-width="1.5" stroke-linecap="round" stroke-linejoin="round"/>
<path fill-rule="evenodd" clip-rule="evenodd" d="M289.266 59.4102C291.083 59.7836 292.854 58.6325 293.222 56.838L293.754 54.2526C292.551 54.0055 291.779 52.8503 292.023 51.6629C292.267 50.4754 293.432 49.7171 294.635 49.9641L295.165 47.3774C295.534 45.5829 294.36 43.8269 292.544 43.4538L279.178 40.7077C277.362 40.3346 275.591 41.4854 275.222 43.2799L274.672 45.9504C275.875 46.1974 276.663 47.2695 276.42 48.4569C276.176 49.6443 275.011 50.4017 273.808 50.1546L273.277 52.74C272.908 54.5345 274.082 56.2904 275.899 56.6637L289.266 59.4102Z" stroke="#EE896C" stroke-width="1.5" stroke-linecap="round" stroke-linejoin="round"/>
<path d="M315.145 157.227C314.721 156.754 314.201 156.471 313.729 156.329C314.201 154.25 314.957 149.666 312.785 147.729C311.416 146.5 309.859 145.98 308.207 146.217C306.507 146.453 304.902 147.445 303.628 148.579C304.289 146.264 304.714 143.523 303.958 141.586C303.533 140.546 302.778 139.79 301.74 139.412C294.848 136.908 288.523 144.09 286.587 146.595C286.068 146.169 285.36 145.744 284.274 145.555C281.159 144.941 277.099 146.5 272.237 150.233C267.659 153.73 263.458 160.96 258.548 169.371C250.76 182.79 241.083 199.518 225.836 206.748C212.289 213.127 200.535 198.431 200.441 198.242L199.119 199.282C199.261 199.423 211.864 215.253 226.592 208.26C242.31 200.841 252.129 183.83 260.059 170.174C264.827 161.905 268.98 154.817 273.276 151.556C278.799 147.351 282.103 146.878 283.897 147.209C284.794 147.351 285.313 147.729 285.643 148.012L266.62 177.876L268.036 178.774L287.39 148.39C287.531 148.154 294.329 138.515 301.173 140.972C301.74 141.161 302.165 141.586 302.401 142.2C303.392 144.563 301.74 149.383 300.748 151.651L281.867 182.082L283.33 182.979L301.928 152.974L301.976 153.021C302.023 152.974 305.044 148.343 308.443 147.871C309.623 147.729 310.661 148.06 311.652 149.005C313.069 150.28 312.502 154.391 311.841 156.754L292.96 186.523L294.376 187.421L313.069 157.935C313.305 157.983 313.588 158.077 313.871 158.408C314.579 159.211 315.429 161.621 313.352 168.993C309.245 183.594 288.192 226.357 241.178 248.897C229.66 254.426 219.086 254.662 209.787 249.653C181.418 234.343 173.063 174.899 172.968 174.285L171.269 174.521C171.269 174.663 173.393 189.878 179.011 206.795C186.61 229.618 196.712 244.55 208.938 251.165C213.611 253.717 218.614 254.993 223.854 254.993C229.566 254.993 235.56 253.48 241.838 250.504C289.467 227.728 310.756 184.35 314.957 169.512C316.845 163.18 316.845 159.069 315.145 157.227Z" fill="white"/>
<path d="M133.27 123.441L141.106 123.582L137.188 102.46L135.536 102.744L139.029 121.834L133.317 121.74L133.27 123.441Z" fill="white"/>
<path d="M119.824 134.587C119.553 134.798 119.32 135.037 119.087 135.276L120.294 136.508C122.606 134.222 124.785 133.241 126.764 133.575C129.576 134.05 131.149 137.185 131.187 137.213L132.727 136.467C132.668 136.307 130.756 132.515 127.072 131.871C124.742 131.456 122.317 132.374 119.824 134.587Z" fill="white"/>
<path d="M109.905 129.012C111.274 129.863 113.02 128.776 112.831 127.17C112.595 125.138 112.548 121.877 113.209 116.538C114.814 103.401 143.797 122.161 158.902 103.543C174.007 84.9256 142.853 64.7014 137.33 73.3014C131.807 81.9014 140.87 84.4531 134.828 86.5322C128.975 88.5641 94.4221 86.3432 97.5847 115.073C97.7735 116.774 98.5288 118.381 99.6617 119.656C101.975 122.255 106.27 126.744 109.905 129.012Z" fill="white"/>
<path d="M159.091 110.021C156.542 102.035 151.066 95.514 143.608 91.6393C136.15 87.7646 127.653 87.0558 119.676 89.6074C111.698 92.1591 105.184 97.6404 101.314 105.106C99.4254 108.745 98.2925 112.667 97.9149 116.636C94.0914 118.054 92.0144 122.259 93.2889 126.134C94.2802 129.252 97.0652 131.284 100.181 131.473C104.099 141.066 112.406 147.823 121.989 150.091V162.188H123.688V150.469C125.482 150.8 127.37 150.989 129.211 150.989C131.052 150.989 132.94 150.8 134.828 150.469V162.188H136.527V150.091C137.235 149.902 137.991 149.713 138.699 149.477C146.676 146.925 153.19 141.444 157.061 133.978C160.884 126.512 161.64 118.006 159.091 110.021ZM155.503 133.174C151.869 140.215 145.685 145.413 138.132 147.823C123.499 152.454 107.875 145.129 101.927 131.284L101.455 129.725C98.4341 130.434 95.8379 128.591 94.8939 125.614C93.9026 122.495 95.6491 119.093 98.7645 118.101C99.2838 117.912 99.8502 117.865 100.369 117.817C100.228 117.25 100.275 116.683 100.464 116.116C100.181 116.116 99.9446 116.163 99.6614 116.163C100.086 112.62 101.125 109.123 102.824 105.815C106.459 98.7745 112.642 93.5767 120.195 91.1668C123.169 90.2217 126.19 89.7492 129.211 89.7492C133.884 89.7492 138.557 90.8832 142.853 93.1041C149.886 96.7426 155.078 102.933 157.486 110.493C159.846 118.101 159.185 126.134 155.503 133.174Z" fill="white"/>
<path d="M102.352 121.22C100.983 120.086 99.0477 119.85 96.6875 120.511L97.1595 122.165C99.0005 121.645 100.369 121.787 101.313 122.543C102.918 123.866 102.824 126.748 102.824 126.796L104.523 126.89C104.476 126.701 104.665 123.11 102.352 121.22Z" fill="white"/>
<path d="M198.93 246.677L183.306 242.707L183.353 261.939V263.404H133.789L135.347 274.698C138.038 274.887 140.634 275.076 143.136 275.265C152.907 275.926 161.403 276.493 166.407 278.525C167.918 279.139 169.192 279.754 170.278 280.368C170.75 280.604 174.809 282.542 174.526 284.999C174.526 285.14 174.479 285.235 174.432 285.329C174.384 285.518 174.29 285.707 174.196 285.849H171.835C172.26 285.518 172.544 285.14 172.591 284.762C172.685 284.148 172.119 282.4 165.793 279.848C161.026 277.911 152.671 277.344 143.041 276.682C128.267 275.69 109.81 274.461 93.8552 267.751C93.572 267.61 93.2416 267.515 92.9584 267.373C92.6751 267.232 92.3919 267.137 92.1087 266.995C91.8255 266.854 91.5895 266.759 91.3062 266.617C83.2344 262.412 78.2309 255.513 76.6731 246.299L76.2955 238.029H75.9651L34.426 235.761L33.6235 235.714C39.0047 158.361 123.688 158.361 123.688 158.361C128.691 166.536 134.828 159.117 134.828 159.117C182.031 167.198 208.182 202.354 208.182 202.354L198.93 246.677Z" fill="#EE896C"/>
<path d="M181.89 305.837C181.371 307.869 179.247 309.617 175.329 310.987C173.818 311.602 172.072 312.216 169.995 312.783C170.844 313.255 171.647 313.964 171.647 315.004C171.647 315.76 171.269 316.799 169.098 318.122C168.343 318.548 167.398 319.068 166.171 319.587C164.472 320.296 162.253 321.099 159.374 321.95C150.075 324.691 131.76 326.77 110.707 323.698C106.364 323.037 101.597 322.139 96.546 320.816C82.3849 317.13 66.4301 310.231 53.9212 297.473C51.2778 294.78 48.2095 291.047 45.1885 286.463C44.9525 286.085 44.7165 285.754 44.4805 285.376C36.8335 273.232 30.0834 255.56 33.4821 235.761L34.2845 235.808L34.9926 235.855C30.3194 263.262 45.5189 286.794 55.0069 296.433C71.6697 313.397 94.6106 319.824 110.896 322.186C130.391 325.021 149.036 323.415 158.902 320.485C161.876 319.635 164.047 318.831 165.605 318.17C165.652 318.17 165.699 318.122 165.746 318.122C169.806 316.374 170.042 315.335 170.042 315.051C170.042 314.437 168.579 313.728 167.493 313.444C167.446 313.444 167.398 313.397 167.351 313.397L166.266 313.161C150.405 315.713 131.052 312.452 130.863 312.405L131.146 310.94C131.335 310.987 151.019 314.342 166.738 311.602C170.231 310.987 172.874 310.279 174.809 309.57C179.199 307.68 180.191 306.026 180.285 304.986C180.332 304.608 180.238 304.23 180.096 303.852C179.813 303.238 179.388 302.718 178.963 302.293C178.727 302.057 178.444 301.773 178.114 301.584C178.066 301.584 178.066 301.537 178.066 301.537C177.17 300.828 176.178 300.261 175.517 299.977C169.145 303.427 154.465 303.71 128.786 301.064L128.975 299.599C146.157 301.395 168.815 303.049 175.706 298.135C177.264 296.717 177.878 295.394 177.594 294.213C177.594 294.118 177.547 294.071 177.5 293.976C176.839 292.37 174.762 291.141 173.299 290.48C172.874 290.291 172.402 290.102 171.93 289.913C171.836 289.865 171.836 289.865 171.836 289.865C170.467 289.346 169.098 288.968 168.248 288.779C157.014 291.33 128.739 289.015 127.511 288.92L127.653 287.455C127.936 287.455 154.417 289.629 166.36 287.644L168.059 287.314C168.72 287.172 169.334 286.983 169.853 286.841C170.561 286.558 171.222 286.227 171.741 285.896C172.166 285.565 172.449 285.187 172.496 284.809C172.591 284.195 172.024 282.447 165.699 279.895C160.932 277.958 152.577 277.391 142.947 276.729C128.172 275.737 109.716 274.508 93.7609 267.798C93.4777 267.657 93.1473 267.562 92.8641 267.42C92.5809 267.279 92.2976 267.184 92.0144 267.042C91.7312 266.901 91.4952 266.806 91.212 266.664C83.1402 262.506 77.9006 255.654 76.2956 246.393C76.1068 245.211 75.9652 243.936 75.8708 242.66C75.7764 241.148 75.7764 239.636 75.8708 238.029C76.154 231.886 77.759 225.413 80.4968 219.979L81.8657 220.546C78.8446 226.877 76.9565 234.769 77.3341 241.573C78.0422 253.103 84.2258 262.128 94.3746 266.381C106.931 271.626 121.139 273.469 133.79 274.508C134.262 274.555 134.781 274.603 135.253 274.603C137.943 274.792 140.54 274.981 143.041 275.17C152.813 275.831 161.309 276.398 166.313 278.43C167.823 279.044 169.098 279.659 170.183 280.273C170.655 280.509 174.715 282.447 174.432 284.904C174.432 285.046 174.385 285.14 174.337 285.235C174.29 285.424 174.196 285.613 174.101 285.754C174.007 285.943 173.865 286.132 173.677 286.274C173.11 286.888 172.213 287.408 170.986 287.881C171.411 288.022 171.93 288.164 172.402 288.353C172.638 288.448 173.346 288.684 174.243 289.157C176.414 290.196 178.491 291.661 179.01 293.646C179.341 294.685 179.247 295.772 178.68 296.812C178.302 297.568 177.736 298.276 176.934 298.891C177.5 299.221 178.255 299.647 178.963 300.214C179.01 300.261 179.766 300.781 180.474 301.584C180.521 301.631 180.521 301.631 180.568 301.679C180.851 302.057 181.135 302.435 181.323 302.813V302.86C181.323 302.86 181.323 302.907 181.371 302.907C181.937 303.899 182.126 304.844 181.89 305.837Z" fill="white"/>
<path fill-rule="evenodd" clip-rule="evenodd" d="M187.05 262.128C189.047 260.937 190.384 258.755 190.384 256.261C190.384 252.49 187.328 249.433 183.557 249.433C182.918 249.433 182.299 249.521 181.712 249.686C181.177 247.429 179.15 245.751 176.73 245.751L176.73 245.75C176.73 242.922 174.437 240.63 171.609 240.63C169.412 240.63 167.539 242.013 166.812 243.956C165.878 242.959 164.549 242.337 163.075 242.337H163.075V242.337C163.075 239.509 160.783 237.216 157.955 237.216C155.127 237.216 152.834 239.509 152.834 242.337C152.834 242.867 152.915 243.379 153.065 243.86C152.136 242.92 150.847 242.337 149.421 242.337C147.059 242.337 145.071 243.935 144.48 246.109C143.896 245.878 143.26 245.751 142.593 245.751C139.765 245.751 137.473 248.043 137.473 250.871C137.473 251.473 137.577 252.05 137.767 252.586C137.67 252.581 137.572 252.578 137.473 252.578C134.645 252.578 132.353 254.871 132.353 257.699C132.353 259.594 133.382 261.249 134.913 262.134V263.177H187.824L187.05 262.128Z" fill="white"/>
<path d="M190.047 264.11L188.498 278.146L187.696 285.328L187.554 286.415L185.477 304.466L183.978 317.764C183.864 318.775 183.009 319.539 181.991 319.539H165.746L166.265 318.075H181.469C181.977 318.075 182.405 317.693 182.462 317.187L185.949 286.368L186.091 285.281L188.466 264.469C188.533 263.876 188.069 263.356 187.472 263.356H134.842C134.236 263.356 133.769 263.892 133.852 264.493L135.253 274.649L135.347 275.169L133.931 275.358L133.837 274.508L132.443 264.158C132.281 262.958 133.214 261.891 134.425 261.891H188.059C189.251 261.891 190.178 262.926 190.047 264.11Z" fill="white"/>
<path d="M313.134 283.457C317.01 289.368 317.399 296.246 314.23 300.63C311.457 304.426 306.961 305.066 306.473 305.157C302.527 305.694 299.729 303.896 297.283 302.29C295.054 300.836 293.189 299.637 290.756 300.152C286.563 301.057 283.677 306.29 283.323 310.861C282.773 317.785 288.129 322.134 288.359 322.349L287.543 323.402C286.877 322.881 281.414 318.294 281.983 310.787C282.378 305.759 285.661 299.937 290.404 298.93C293.386 298.313 295.687 299.818 297.916 301.271C300.29 302.827 302.725 304.371 306.242 303.912C306.67 303.833 310.726 303.21 313.152 299.929C316.024 295.986 315.566 289.764 312.027 284.305L313.134 283.457Z" fill="#EE896C"/>
<path d="M226.263 300.602L231.006 299.723L228.307 303.728L229.402 304.48L232.101 300.476L232.98 305.219L234.335 304.968L233.457 300.225L237.411 302.997L238.164 301.902L234.209 299.13L238.953 298.251L238.713 296.957L233.97 297.836L236.669 293.831L235.574 293.079L232.863 297.021L231.984 292.278L230.629 292.529L231.508 297.272L227.565 294.562L226.812 295.657L230.766 298.429L226.023 299.308L226.263 300.602Z" fill="white"/>
<path d="M56.0753 147.425L55.3005 147.939C55.2479 147.879 50.85 140.928 44.3921 135.396C39.4076 131.132 34.684 128.816 30.1868 128.534C31.1881 130.052 31.9632 131.554 32.4214 133.12C33.6174 137.123 32.6847 140.694 29.6813 143.412C25.4635 147.24 20.4376 147.205 17.3953 146.028C14.7408 144.993 13.0362 142.972 12.8033 140.626C12.4762 137.195 15.2382 133.466 20.5589 130.112C23.0266 128.55 25.6991 127.712 28.4068 127.587C24.5483 122.661 18.1344 118.525 12.1766 117.602L12.4098 116.709C18.7594 117.716 25.6281 122.253 29.6284 127.586C34.5333 127.727 39.7356 130.103 45.0959 134.678C51.6024 140.326 56.053 147.338 56.0753 147.425ZM13.7596 139.954C13.774 140.154 13.7621 140.323 13.7764 140.523C13.9767 142.525 15.4749 144.248 17.7981 145.147C20.592 146.221 25.2484 146.259 29.1635 142.695C31.8644 140.24 32.7167 137.004 31.6402 133.321C31.1597 131.669 30.2794 130.046 29.169 128.463C26.3825 128.498 23.714 129.279 21.1293 130.89C16.3755 133.857 13.8228 137.032 13.7596 139.954Z" fill="white"/>
<path d="M84.4534 90.4548L83.4016 90.5266C83.1105 86.3175 83.9663 83.2943 85.9828 81.3933C88.3764 79.1397 91.471 79.5129 91.6125 79.4768L91.4799 80.5512C91.4799 80.5512 88.7045 80.2476 86.7131 82.1876C84.9573 83.8111 84.1819 86.6178 84.4534 90.4548Z" fill="#EE896C"/>
<path d="M79.7838 87.6321L78.7209 87.6012C78.9928 82.6454 80.5003 78.9284 83.2797 76.5917C86.955 73.514 91.3678 73.9737 91.5593 74.0154L91.4267 75.0899L91.4736 74.5651L91.4267 75.0899C91.3629 75.076 87.2443 74.6469 83.9323 77.436C81.4387 79.534 80.0253 82.9706 79.7838 87.6321Z" fill="#EE896C"/>
<path d="M96.341 87.3142L96.2553 87.9377L96.2786 87.6245L96.2553 87.9377C96.2553 87.9377 94.5959 87.7571 93.3886 88.9085C92.3495 89.9147 91.9113 91.575 92.0739 93.8893L91.4418 93.9217C91.2545 91.4088 91.7856 89.5585 92.9718 88.4253C94.3894 87.0926 96.2446 87.2875 96.341 87.3142Z" fill="#EE896C"/>
<mask id="path-29-inside-1_115_930" fill="white">
<path d="M96.3113 84.0064L96.2437 84.6508L96.267 84.3377L96.2437 84.6508C96.2046 84.648 93.7231 84.4072 91.7494 86.0731C90.2354 87.3791 89.3947 89.4232 89.2455 92.2263L88.5981 92.1986C88.7408 89.2178 89.6743 86.9838 91.3326 85.59C93.5587 83.7064 96.2149 83.9797 96.3113 84.0064Z"/>
</mask>
<path d="M96.3113 84.0064L96.2437 84.6508L96.267 84.3377L96.2437 84.6508C96.2046 84.648 93.7231 84.4072 91.7494 86.0731C90.2354 87.3791 89.3947 89.4232 89.2455 92.2263L88.5981 92.1986C88.7408 89.2178 89.6743 86.9838 91.3326 85.59C93.5587 83.7064 96.2149 83.9797 96.3113 84.0064Z" fill="#EE896C"/>
<path d="M96.3113 84.0064L107.251 85.1532L108.222 75.8945L99.2511 73.4065L96.3113 84.0064ZM96.2437 84.6508L85.274 83.836L107.184 85.7976L96.2437 84.6508ZM96.2437 84.6508L95.4403 95.6215L106.399 96.4241L107.214 85.4657L96.2437 84.6508ZM91.7494 86.0731L84.6543 77.6671L84.6092 77.7052L84.5645 77.7438L91.7494 86.0731ZM89.2455 92.2263L88.7748 103.216L99.6514 103.682L100.23 92.8109L89.2455 92.2263ZM88.5981 92.1986L77.6107 91.6726L77.0821 102.715L88.1274 103.189L88.5981 92.1986ZM91.3326 85.59L98.4103 94.0106L98.4241 93.9989L98.438 93.9872L91.3326 85.59ZM85.3712 82.8596L85.3037 83.5041L107.184 85.7976L107.251 85.1532L85.3712 82.8596ZM107.214 85.4657L107.237 85.1526L85.2972 83.5228L85.274 83.836L107.214 85.4657ZM85.2972 83.5228L85.274 83.836L107.214 85.4657L107.237 85.1526L85.2972 83.5228ZM97.0472 73.6802C97.2145 73.6925 96.9064 73.6678 96.6452 73.6553C96.3745 73.6424 96.049 73.6341 95.6776 73.6383C94.9447 73.6466 93.9858 73.7042 92.8851 73.8906C90.7446 74.2532 87.5906 75.1888 84.6543 77.6671L98.8444 94.4791C97.8819 95.2915 96.9555 95.5146 96.5589 95.5817C96.3303 95.6205 96.1224 95.6347 95.9274 95.6369C95.8251 95.6381 95.7153 95.636 95.5955 95.6303C95.4852 95.625 95.2632 95.6085 95.4403 95.6215L97.0472 73.6802ZM84.5645 77.7438C80.0203 81.6637 78.5066 87.0286 78.2611 91.6417L100.23 92.8109C100.256 92.3313 100.319 92.3794 100.171 92.7438C99.9986 93.1651 99.6197 93.8111 98.9343 94.4024L84.5645 77.7438ZM89.7163 81.2364L89.0689 81.2087L88.1274 103.189L88.7748 103.216L89.7163 81.2364ZM99.5856 92.7246C99.6097 92.2195 99.6833 92.2108 99.5576 92.5138C99.4126 92.8634 99.0682 93.4576 98.4103 94.0106L84.255 77.1694C79.4969 81.1686 77.8451 86.7763 77.6107 91.6726L99.5856 92.7246ZM98.438 93.9872C97.6696 94.6374 96.8996 94.8515 96.4812 94.9233C96.2596 94.9614 96.0408 94.9776 95.8077 94.9777C95.6894 94.9777 95.5395 94.9735 95.3526 94.9598C95.2628 94.9532 95.1306 94.9418 94.9639 94.922C94.8844 94.9125 94.753 94.8959 94.5886 94.8701C94.507 94.8573 94.3795 94.8363 94.2233 94.8062C94.1102 94.7844 93.7833 94.7205 93.3715 94.6063L99.2511 73.4065C98.584 73.2215 98.0294 73.1408 98.0011 73.1364C97.8208 73.1081 97.6688 73.0887 97.564 73.0762C97.3467 73.0503 97.1454 73.0322 96.9694 73.0193C96.6101 72.9928 96.2194 72.9776 95.8038 72.9777C94.976 72.9778 93.9359 73.0385 92.76 73.2403C90.4328 73.6397 87.2217 74.659 84.2273 77.1927L98.438 93.9872Z" fill="#EE896C" mask="url(#path-29-inside-1_115_930)"/>
<defs>
<clipPath id="clip0_115_930">
<rect width="25.4524" height="25.4524" fill="white" transform="translate(33.5972 53.4502) rotate(-30)"/>
</clipPath>
<clipPath id="clip1_115_930">
<rect width="25.4524" height="25.4524" fill="white" transform="translate(210.092 79.1304) rotate(22.6642)"/>
</clipPath>
</defs>
</svg>
