<svg width="264" height="293" viewBox="0 0 264 293" fill="none" xmlns="http://www.w3.org/2000/svg">
<path d="M69.0096 11.5709C67.659 8.90616 68.7488 5.65166 71.4379 4.31506C72.2094 3.92894 73.043 3.73801 73.8817 3.73801C74.4595 3.73801 75.0399 3.82712 75.6041 4.01382C76.9881 4.46783 78.1104 5.43102 78.7649 6.72094C79.4185 8.01086 79.526 9.47476 79.0677 10.8453C78.609 12.2158 77.6387 13.3275 76.3361 13.9767C73.6469 15.3133 70.3602 14.2356 69.0096 11.5709V11.5709ZM91.217 29.6383L90.7771 28.7727L85.6712 31.3101L84.5613 29.1206L87.7011 27.5591L87.2608 26.6935L84.1214 28.255L77.2035 14.6047C78.5237 13.824 79.5093 12.6147 79.9985 11.1508C80.54 9.53418 80.4127 7.8072 79.6409 6.28391C78.8694 4.76061 77.5454 3.62768 75.9125 3.09304C74.2805 2.55416 72.535 2.68145 70.998 3.44522C69.4611 4.20898 68.3166 5.52012 67.7756 7.13677C67.2345 8.75765 67.3613 10.4847 68.1332 12.0079C69.2624 14.2356 71.5382 15.5213 73.8975 15.5213C74.7127 15.5213 75.5373 15.3685 76.3288 15.046L85.2347 32.6169L91.217 29.6383" fill="#FFFDFA"/>
<path d="M75.2356 11.9727C74.4736 12.3559 73.6075 12.4184 72.7981 12.1518C71.9887 11.8853 71.3322 11.3147 70.9493 10.5525C70.5665 9.7904 70.5036 8.92831 70.7719 8.11619C71.0402 7.30824 71.608 6.65024 72.3699 6.26708C72.8215 6.04219 73.3089 5.92972 73.7996 5.92972C74.1374 5.92972 74.477 5.98387 74.8073 6.09216C75.6167 6.3587 76.2733 6.92926 76.6561 7.68723C77.4464 9.26149 76.809 11.1856 75.2356 11.9727V11.9727ZM77.5084 7.26242C76.4824 5.21755 73.9854 4.38878 71.9421 5.41747C69.8987 6.44198 69.071 8.94079 70.097 10.9815C70.594 11.9727 71.4467 12.7099 72.4982 13.0556C72.9269 13.1972 73.3676 13.2679 73.8067 13.2679C74.4441 13.2679 75.0773 13.1222 75.6634 12.8265C77.7067 11.802 78.5345 9.30313 77.5084 7.26242Z" fill="#FFFDFA"/>
<path d="M62.1695 3.86975L55.283 0.537964L55.5832 -6.04478e-05L62.4698 3.33173L62.1695 3.86975" fill="#DC7C59"/>
<path d="M62.4699 7.73962H55.8359V7.18679H62.4699V7.73962" fill="#DC7C59"/>
<path d="M101.908 35.934L95.6396 31.4937L96.0057 30.9585L102.274 35.3987L101.908 35.934Z" fill="#DC7C59"/>
<path d="M95.7489 28.7472L95.6396 28.1661L102.165 27.0887L102.274 27.6698L95.7489 28.7472Z" fill="#DC7C59"/>
<path d="M89.3364 54.1998C89.2493 53.8173 89.1631 53.4134 89.0743 52.9968C88.2795 49.2645 87.1902 44.155 83.021 44.8564C81.8609 45.0519 81.5367 46.4462 81.1935 47.9212C80.5953 50.4973 79.9793 52.2997 77.472 52.1296C75.3046 51.9766 75.0807 50.4038 75.1402 49.4813C75.2723 47.4366 76.8412 45.3452 78.2091 45.4345C80.0583 45.5407 81.6353 44.8223 82.4263 43.513C83.0427 42.4886 83.0504 41.2813 82.4467 40.2824C81.8931 39.3684 80.3566 37.8679 76.2957 38.1102C72.5564 38.3355 70.1961 41.0348 68.9828 42.9434C68.9799 40.971 68.8044 39.3557 68.4544 38.1016C68.1264 36.8391 67.6056 35.7509 66.7848 35.2068C66.0664 34.7307 65.2151 34.7052 64.2541 35.1218C64.0876 35.1898 63.9844 35.245 63.9695 35.2535C62.2851 36.1207 61.4202 37.7658 61.0047 39.5215C60.5675 37.9444 59.9239 36.5203 58.9783 35.8402C58.8283 35.7339 58.6737 35.6489 58.5148 35.5766C58.4226 35.5298 58.3292 35.4831 58.2336 35.4491C56.8155 34.922 55.6643 36.1377 55.5551 36.2567C54.8278 36.8901 54.2063 37.8551 53.7233 39.1134C50.8251 46.6715 53.0287 63.2033 61.732 77.7924C65.5719 85.2825 72.3653 94.8682 83.8588 101.721C84.0045 101.419 84.225 101.151 84.4943 100.964C73.1032 94.2179 66.38 84.7341 62.5838 77.3248L62.5498 77.261L62.543 77.2567C53.1429 61.4731 52.2555 45.6555 54.6311 39.4619C55.2696 37.7956 56.1362 36.7541 57.1363 36.4438C57.4906 36.3333 57.8037 36.3375 58.0989 36.4608C58.8177 36.8859 60.0025 38.446 60.6963 43.9169C60.7489 44.8138 60.8492 45.528 60.9104 45.9021C61.0697 47.6832 61.1823 49.7917 61.2273 52.2869L62.1997 52.2699C62.1585 49.9744 62.0587 47.9127 61.9028 46.0806L61.9232 46.0763C61.9193 45.9403 61.876 44.5333 61.644 42.7862C61.6428 40.3674 62.1309 37.2812 64.4309 36.1122C64.4959 36.0782 64.5579 36.0527 64.6208 36.0229C64.9262 35.9039 65.5991 35.7339 66.241 36.176C66.6633 36.4693 67.1519 37.0772 67.5083 38.3312C67.9705 40.1464 68.038 42.5396 67.993 44.1082C67.9879 44.2655 67.9815 44.4227 67.9747 44.5843C67.9679 44.7246 67.9603 44.8563 67.9522 44.9754L67.815 46.9733C67.6769 48.5291 67.4615 50.3017 67.1463 52.3252L68.1073 52.4739C68.5402 49.6939 68.8116 47.2368 68.9242 45.1071C69.2301 44.4057 71.5853 39.3684 76.3535 39.0836C78.9483 38.9263 80.8655 39.547 81.6145 40.7882C82.0278 41.4684 82.0202 42.3016 81.5936 43.0072C80.9925 44.0062 79.7508 44.5503 78.266 44.461C76.1785 44.3335 74.3211 47.0753 74.1699 49.4176C74.031 51.5728 75.24 52.9458 77.4036 53.0988C80.933 53.3496 81.6306 50.34 82.1408 48.1423C82.4084 46.9903 82.6612 45.9021 83.1816 45.817C86.4328 45.2644 87.3708 49.6641 88.1227 53.1966C88.2128 53.6217 88.2999 54.0298 88.3878 54.4166C91.4087 67.705 96.38 76.7509 103.207 81.4311C103.382 81.1548 103.635 80.9168 103.932 80.751C97.2224 76.2493 92.3263 67.3564 89.3364 54.1998" fill="#FFFDFA"/>
<path d="M65.2339 58.5026L65.5302 59.4004C65.5895 59.3799 71.5186 57.58 76.1805 61.917L76.8433 61.2333C71.7573 56.5009 65.4987 58.4161 65.2339 58.5026Z" fill="#FFFDFA"/>
<path d="M36.4063 229.982C35.4067 231.373 34.0694 232.498 32.4846 233.217H32.4829L32.367 233.27C31.8402 233.501 31.2899 233.688 30.7298 233.823C30.2439 233.946 29.769 234.068 29.3 234.19C29.6791 234.412 30.0254 234.665 30.3393 234.953C30.545 234.901 30.7486 234.848 30.9573 234.796C31.5293 234.656 32.0932 234.469 32.6353 234.233L32.64 234.238L32.7555 234.185C34.7755 233.296 36.44 231.822 37.5925 229.977C37.1939 230.017 36.7952 230.017 36.4063 229.982" fill="#FFFDFA"/>
<path d="M78.898 230.047C78.6013 230.084 78.2891 230.052 77.9781 229.977C78.0764 230.237 78.1524 230.52 78.1904 230.821C78.3074 231.758 78.0402 232.736 77.3962 233.728L78.0417 234.4C78.8472 233.162 79.1747 231.901 79.0157 230.645C78.989 230.436 78.947 230.242 78.898 230.047" fill="#FFFDFA"/>
<path d="M149.16 244.904C148.999 244.925 148.837 244.942 148.673 244.947C148.506 244.955 148.341 244.951 148.177 244.942C148.07 251.561 148.388 260.465 150.178 268.816C150.287 269.322 150.389 269.828 150.484 270.334C150.676 270.308 150.87 270.291 151.068 270.283C151.205 270.274 151.34 270.282 151.475 270.287C151.372 269.729 151.261 269.172 151.141 268.61C149.363 260.319 149.051 251.47 149.16 244.904" fill="#FFFDFA"/>
<path d="M136.048 257.066L135.443 256.264C136.474 255.577 137.047 254.783 137.146 253.912C137.317 252.419 136.066 251.11 136.053 251.097L136.822 250.432C136.886 250.496 138.402 252.067 138.186 254.007C138.056 255.178 137.337 256.204 136.048 257.066" fill="#FFFDFA"/>
<path d="M86.3022 244.989C85.3145 245.086 84.1548 245.158 83.1765 244.87C83.1356 244.887 83.0956 244.908 83.053 244.921C82.8035 244.997 82.5583 245.086 82.3118 245.175C82.0065 245.281 81.4152 245.259 81.1393 245.116C80.8609 244.967 81.9142 239.691 82.4608 238.341C82.4617 238.337 82.4634 238.337 82.4646 238.333L30.9056 233.847C5.25403 237.364 0 254.628 0 254.628L86.794 262.042C86.8161 258.309 85.8271 245.64 86.3022 244.989" fill="#DC7C59"/>
<path d="M150.917 293L52.5188 256.918C52.5188 256.918 56.6988 244.215 85.6696 245.01C86.3185 245.027 86.9485 244.989 87.5603 244.904L150.839 267.921C153.035 274.464 153.257 284.552 150.917 293" fill="#DC7C59"/>
<path d="M55.6592 257.066L54.7302 256.776C54.7773 256.616 55.9405 252.864 60.5186 249.496C64.6919 246.428 70.4328 244.056 86.7944 244.381L86.6798 245.372C71.4148 245.065 65.1833 247.315 61.1493 250.254C56.8028 253.422 55.6702 257.031 55.6592 257.066" fill="#FFFDFA"/>
<path d="M179.399 32.6169L174.694 31.7467L179.813 20.4547L180.775 20.8325L176.155 31.025L179.603 31.6661L179.399 32.6169" fill="#FFFDFA"/>
<path d="M183.017 37.5924C182.828 37.5924 182.634 37.5883 182.434 37.5799L182.485 36.6281C184.343 36.7237 185.644 36.3371 186.352 35.4725C187.375 34.2297 186.862 32.3385 186.857 32.3218L187.791 32.0641C187.819 32.1597 188.445 34.4334 187.114 36.0628C186.283 37.0812 184.906 37.5924 183.017 37.5924" fill="#FFFDFA"/>
<path d="M192.407 40.8945C189.608 40.4554 196.856 38.412 195.942 30.9813C195.028 23.5548 179.591 33.7594 170.952 23.2002C162.313 12.6368 180.158 1.86228 183.317 6.73445C186.476 11.6066 181.287 13.0632 184.742 14.2369C188.196 15.4106 209.098 14.068 205.868 31.9228C205.868 31.9228 195.206 41.3336 192.407 40.8945" fill="#FFFDFA"/>
<path d="M207.835 36.4905C207.294 38.2037 205.802 39.2445 204.087 38.8419L203.808 39.7499C200.403 47.7034 191.471 51.9393 183.095 49.2667C178.774 47.8876 175.245 44.898 173.159 40.8463C171.072 36.7989 170.679 32.1732 172.051 27.826C173.423 23.4787 176.395 19.9281 180.421 17.8295C182.87 16.5531 185.53 15.9064 188.211 15.9064C189.937 15.9064 191.673 16.1762 193.365 16.7159C197.687 18.095 201.216 21.0845 203.302 25.1363C204.272 27.0165 204.87 29.0252 205.1 31.0725C204.949 31.0554 204.799 31.0425 204.649 31.0382C204.753 31.3637 204.776 31.7064 204.704 32.0233C205.007 32.0319 205.313 32.0833 205.615 32.1775C207.408 32.7515 208.404 34.6831 207.835 36.4905V36.4905ZM206.102 31.3166C205.89 29.0295 205.249 26.7852 204.168 24.6865C201.962 20.4035 198.23 17.2426 193.66 15.7821C189.09 14.3216 184.229 14.7414 179.972 16.96C175.716 19.1786 172.572 22.9305 171.122 27.5305C169.671 32.1261 170.087 37.0173 172.293 41.296C174.499 45.579 178.23 48.7399 182.8 50.2004C183.211 50.3332 183.623 50.4446 184.034 50.5431V57.4944H185.009V50.7529C186.082 50.9499 187.155 51.0485 188.219 51.0485C189.289 51.0485 190.348 50.9499 191.386 50.7615V57.4944H192.361V50.5559C197.838 49.241 202.58 45.3692 204.829 39.8527C206.593 39.7499 208.199 38.5763 208.764 36.786C209.475 34.5332 208.284 32.1261 206.102 31.3166" fill="#FFFDFA"/>
<path d="M203.543 33.7809C202.23 34.8614 202.335 36.9496 202.34 37.0397L203.305 36.9796C203.303 36.9668 203.234 35.2988 204.152 34.5441C204.678 34.111 205.47 34.0338 206.503 34.3254L206.759 33.3778C205.408 33.0005 204.326 33.1377 203.543 33.7809Z" fill="#FFFDFA"/>
<path d="M223.085 110.394C223.76 113.691 222.874 117.753 222.874 117.753C212.594 103.838 196.54 89.1841 191.649 85.1223C186.759 81.0648 173.886 71.8662 164.053 71.675C154.217 71.4838 144.108 82.947 144.108 82.947C141.601 80.8523 137.333 78.6175 133.785 76.935C144.231 66.8654 160.998 56.0566 184.79 56.1416C184.79 56.1416 187.647 60.2161 191.156 56.1416C191.156 56.1416 239.696 49.1353 252.643 102.202L220.714 102.398C220.714 102.398 222.407 107.093 223.085 110.394" fill="#DC7C59"/>
<path d="M19.6533 229.746C39.39 177.64 60.2144 135.478 79.8919 107.796C97.5324 82.9757 113.442 71.0042 124.693 74.0833C130.818 75.7613 137.162 79.0959 143.317 83.2482C137.705 89.4788 132.06 98.1795 126.322 109.406C113.013 135.444 99.1933 174.906 84.1953 229.746H19.6533ZM192.918 187.98C192.918 187.98 185.798 188.632 179.238 185.591C173.266 182.823 168.286 178.27 164.555 173.441C165.076 170.417 165.58 167.73 166.064 165.353C165.728 165.353 165.398 165.268 165.123 165.102C163.484 173.134 161.815 183.738 160.155 196.685C157.312 218.865 155.383 241.074 155.094 244.481H81.2423C97.7379 182.103 112.768 138.063 127.189 109.849C140.108 84.5727 152.439 72.2861 164.887 72.2861C170.56 72.2861 178.499 76.0168 187.845 83.0651C196.539 89.6279 206.229 98.9631 215.127 109.355C217.7 112.361 220.3 115.568 222.851 118.911C222.898 118.541 223.08 118.209 223.343 117.953C220.872 114.725 218.356 111.629 215.867 108.724C196.408 85.9951 176.397 71.3151 164.887 71.3151C157.888 71.3151 150.958 75.0117 143.981 82.52C137.705 78.274 131.221 74.8627 124.95 73.1421C113.277 69.948 96.9934 82.0515 79.0981 107.229C59.2895 135.095 38.3327 177.572 18.4927 230.061L18.2434 230.721H83.9289C82.6739 235.321 81.4108 240.027 80.1391 244.843L79.9774 245.457H155.99L156.027 245.009C156.046 244.767 158.05 220.768 161.121 196.809C162.25 188.001 163.323 180.736 164.333 174.744C168.022 179.382 172.596 183.577 178.828 186.477C180.402 187.209 182.035 187.742 183.71 188.087C184.311 188.065 184.912 188.04 185.512 187.993C185.628 187.989 185.769 188.359 185.878 188.376C186.182 188.244 186.536 188.193 186.931 188.265C188.479 188.542 190.04 188.27 191.6 188.244C192.035 188.236 192.471 188.065 192.906 188.082C192.901 187.967 192.903 188.095 192.918 187.98" fill="#FFFDFA"/>
<path d="M242.195 147.053C242.164 147.544 241.951 147.907 241.644 148.155C245.427 156.214 247.792 163.949 247.792 170.521C247.792 175.875 246.157 180.024 242.932 182.857C239.399 185.964 233.904 187.947 226.6 187.947H209.898C209.017 186.528 203.749 178.589 197.809 170.23C197.521 170.431 197.177 170.538 196.808 170.495C203.429 179.691 208.673 188.186 208.732 188.284L208.875 188.515H226.6C234.15 188.515 239.863 186.861 243.582 183.592C247.027 180.563 248.774 176.166 248.774 170.521C248.774 163.624 246.23 155.497 242.195 147.053" fill="#FFFDFA"/>
<path d="M245.89 102.384H244.924C245.075 102.677 261.35 139.204 225.285 162.273H225.284C211.865 170.267 196.461 170.518 185.902 169.323C173.285 167.899 161.992 163.749 156.397 160.27C150.355 156.511 150.388 155.197 150.456 154.972C150.576 154.572 151.586 154.377 152.33 154.377C152.367 154.377 152.403 154.377 152.438 154.377L153.166 154.398C162.54 158.663 175.17 159.794 175.298 159.802L175.382 158.833C175.254 158.824 162.412 157.672 153.16 153.322C151.074 152.34 149.568 151.459 148.484 150.685C146.104 148.772 145.809 147.543 145.927 146.897C145.976 146.629 146.105 146.382 146.286 146.161C146.541 145.863 146.861 145.625 147.15 145.447C147.211 145.408 147.272 145.374 147.336 145.336C147.343 145.336 147.35 145.332 147.356 145.328C147.528 145.234 147.706 145.149 147.887 145.072C147.895 145.068 147.905 145.064 147.906 145.064H147.906C148.596 144.766 149.313 144.579 149.79 144.49C153.107 147.743 162.173 150.371 178.631 152.952L178.784 151.987C167.786 150.265 153.432 147.547 150.034 143.299C149.341 142.134 149.184 141.186 149.578 140.484C149.607 140.442 149.637 140.395 149.671 140.352C150.425 139.387 152.081 138.975 153.092 138.809C153.335 138.771 153.579 138.737 153.82 138.711C153.886 138.707 153.93 138.702 153.933 138.702C154.886 138.605 155.776 138.596 156.358 138.622C162.87 142.1 180.865 145.336 181.631 145.476L181.803 144.515C181.626 144.486 164.883 141.475 157.793 138.239L156.711 137.703C156.7 137.699 156.688 137.69 156.677 137.686C156.309 137.482 155.996 137.295 155.728 137.116C154.94 136.564 154.356 135.904 154.444 135.381C154.511 134.977 155.148 133.97 159.571 133.387C162.889 132.949 168.169 133.982 174.284 135.177C183.654 137.01 195.314 139.289 206.436 137.695C212.579 136.819 217.643 133.268 220.696 127.706C224.489 120.792 224.696 111.428 221.501 103.332H221.503C221.486 103.289 221.405 103.085 221.266 102.758C221.233 102.681 221.203 102.605 221.17 102.528H221.166C220.332 100.606 218.012 95.6479 214.709 91.7697L213.965 92.3991C216.954 95.9115 219.17 100.457 220.106 102.549C220.185 102.724 220.26 102.898 220.336 103.072C220.414 103.255 220.477 103.4 220.52 103.506C223.807 111.432 223.57 120.435 219.839 127.238C217.787 130.98 213.771 135.662 206.297 136.734C195.34 138.299 183.769 136.041 174.471 134.225C168.272 133.013 162.919 131.967 159.443 132.422C158.386 132.562 157.478 132.732 156.705 132.941C156.378 132.996 153.502 133.566 153.24 135.186C153.111 135.985 153.624 136.802 154.801 137.661C154.501 137.673 154.174 137.699 153.833 137.733C153.682 137.746 153.139 137.793 152.447 137.937C150.931 138.235 149.42 138.826 148.75 139.97C148.357 140.574 148.229 141.271 148.372 142.041C148.476 142.598 148.707 143.133 149.071 143.652C148.66 143.759 148.121 143.916 147.567 144.15C147.512 144.171 146.992 144.371 146.419 144.758C146.361 144.796 146.306 144.839 146.25 144.881C146.229 144.894 146.209 144.911 146.189 144.924C146.11 144.983 146.035 145.047 145.96 145.111C145.958 145.111 145.956 145.115 145.953 145.115C145.879 145.183 145.807 145.247 145.739 145.319C145.721 145.336 145.704 145.353 145.686 145.374C145.638 145.421 145.591 145.472 145.547 145.527C145.166 145.97 144.874 146.518 144.844 147.194C144.782 148.572 145.807 150.001 147.947 151.51C148.777 152.17 149.774 152.854 150.951 153.573C150.329 153.739 149.713 154.062 149.521 154.691C149.253 155.576 149.621 157.204 155.881 161.095C161.153 164.374 172.15 168.749 185.792 170.293C188.599 170.608 191.742 170.824 195.1 170.824C204.557 170.824 215.71 169.111 225.785 163.111C232.664 159.016 241.563 151.506 246.517 139.659C254.432 120.732 245.89 102.384 245.89 102.384Z" fill="#FFFDFA"/>
<path d="M167.932 282.63H262.17V188.934H167.932V282.63ZM263.147 283.602H166.955V187.962H263.147V283.602" fill="#FFFDFA"/>
</svg>
