<svg width="34" height="34" viewBox="0 0 34 34" fill="none" xmlns="http://www.w3.org/2000/svg">
<rect width="34" height="34" rx="12" fill="#FFFFF4"/>
<path d="M24.4711 10.72C24.4711 12.2222 23.2195 13.44 21.6756 13.44C20.1316 13.44 18.88 12.2222 18.88 10.72C18.88 9.21779 20.1316 8 21.6756 8C23.2195 8 24.4711 9.21779 24.4711 10.72Z" fill="#EE896C"/>
<path d="M13.5911 16.8401C13.5911 18.3423 12.3395 19.5601 10.7956 19.5601C9.25161 19.5601 8 18.3423 8 16.8401C8 15.3379 9.25161 14.1201 10.7956 14.1201C12.3395 14.1201 13.5911 15.3379 13.5911 16.8401Z" fill="#EE896C"/>
<path d="M24.5467 22.2801C24.5467 23.7823 23.2951 25.0001 21.7511 25.0001C20.2072 25.0001 18.9556 23.7823 18.9556 22.2801C18.9556 20.7778 20.2072 19.5601 21.7511 19.5601C23.2951 19.5601 24.5467 20.7778 24.5467 22.2801Z" fill="#EE896C"/>
<path fill-rule="evenodd" clip-rule="evenodd" d="M18.2295 12.3441C18.4021 12.6776 18.4056 13.0155 18.2373 13.0988L14.7097 14.8437C14.5414 14.927 14.2651 14.7241 14.0925 14.3905C13.9199 14.057 13.9164 13.7191 14.0848 13.6358L17.6123 11.8909C17.7806 11.8076 18.057 12.0105 18.2295 12.3441Z" fill="#EE896C"/>
<path fill-rule="evenodd" clip-rule="evenodd" d="M12.4257 17.4254C12.6167 17.102 13.0366 16.9896 13.3637 17.1742L19.5833 20.6853C19.9104 20.8699 20.0207 21.2817 19.8297 21.6051V21.6051C19.6388 21.9285 19.2189 22.041 18.8918 21.8564L12.6722 18.3453C12.3451 18.1606 12.2348 17.7488 12.4257 17.4254V17.4254Z" fill="#EE896C"/>
</svg>
