<svg width="41" height="50" viewBox="0 0 41 50" fill="none" xmlns="http://www.w3.org/2000/svg">
<path d="M34.2792 26.4222C34.2574 22.3255 36.0656 19.2334 39.7256 16.9562C37.6777 13.9534 34.5842 12.3013 30.4995 11.9776C26.6326 11.6651 22.4062 14.2883 20.8595 14.2883C19.2256 14.2883 15.4785 12.0893 12.5375 12.0893C6.45935 12.1897 -4.653e-06 17.0567 -4.653e-06 26.958C-4.653e-06 29.8827 0.522843 32.9041 1.56854 36.0222C2.9628 40.1189 7.99521 50.1654 13.2455 49.9979C15.9904 49.931 17.9293 47.9998 21.5021 47.9998C24.966 47.9998 26.7633 49.9979 29.8241 49.9979C35.118 49.9198 39.6711 40.7887 41 36.6808C33.898 33.2538 34.2792 26.6343 34.2792 26.4222ZM28.114 8.09299C31.0877 4.47626 30.8154 1.18326 30.7282 4.76837e-06C28.1031 0.156283 25.064 1.83069 23.3321 3.8958C21.4259 6.10603 20.3039 8.8409 20.5436 11.9218C23.3866 12.1451 25.979 10.6493 28.114 8.09299Z" fill="#D2D5D9"/>
</svg>
