<svg width="37" height="37" viewBox="0 0 37 37" fill="none" xmlns="http://www.w3.org/2000/svg">
<path fill-rule="evenodd" clip-rule="evenodd" d="M35.2235 1.803C34.1883 0.767729 32.5159 0.767729 31.4807 1.803L18.5 14.7571L5.51934 1.77645C4.48407 0.741183 2.81172 0.741183 1.77645 1.77645C0.741183 2.81172 0.741183 4.48407 1.77645 5.51934L14.7571 18.5L1.77645 31.4807C0.741183 32.5159 0.741183 34.1883 1.77645 35.2235C2.81172 36.2588 4.48407 36.2588 5.51934 35.2235L18.5 22.2429L31.4807 35.2235C32.5159 36.2588 34.1883 36.2588 35.2235 35.2235C36.2588 34.1883 36.2588 32.5159 35.2235 31.4807L22.2429 18.5L35.2235 5.51934C36.2323 4.51062 36.2323 2.81172 35.2235 1.803Z" fill="#F6565D" stroke="#F6565D"/>
</svg>
