<svg width="36" height="45" viewBox="0 0 36 45" fill="none" xmlns="http://www.w3.org/2000/svg">
<path fill-rule="evenodd" clip-rule="evenodd" d="M2.25219 36C2.31969 36 2.3872 35.9977 2.45471 35.991L11.8382 35.1393C12.8688 35.0447 13.8386 34.5895 14.57 33.8573L34.8153 13.5858C36.4534 11.941 36.3837 9.19665 34.6623 7.47074L34.66 7.46849L28.4989 1.29939C26.8315 -0.36568 23.9669 -0.44454 22.3873 1.14392L2.14418 21.4132C1.4106 22.1454 0.956053 23.1188 0.861544 24.1485L0.0087063 33.5441C-0.0497997 34.2088 0.188725 34.8667 0.659023 35.3398C1.08432 35.7657 1.65813 36 2.25219 36V36Z" fill="#D2D5D9"/>
<path fill-rule="evenodd" clip-rule="evenodd" d="M33.75 40H2.25C1.0125 40 0 41.125 0 42.5C0 43.875 1.0125 45 2.25 45H33.75C34.9875 45 36 43.875 36 42.5C36 41.125 34.9875 40 33.75 40" fill="#D2D5D9"/>
</svg>
