<svg width="35" height="48" viewBox="0 0 35 48" fill="none" xmlns="http://www.w3.org/2000/svg">
<path d="M28.4523 10.4128C27.7018 9.22631 26.2202 8.70769 24.8783 9.16331C23.5371 9.61884 22.693 10.927 22.8432 12.3172C23.1256 14.9312 22.6731 16.8655 21.3542 18.4336C18.5425 15.2651 17.5751 10.8149 18.9616 6.71634C19.2068 5.99194 19.5301 5.28741 19.9491 4.56159C20.5421 3.53475 20.4106 2.18269 19.7032 1.22831C19.1303 0.457031 18.2185 0.00075 17.2482 0C17.2474 0 17.2474 0 17.2466 0C16.277 0 15.366 0.455531 14.7924 1.22606C13.278 3.26072 0 21.4021 0 31.637C0 40.6597 7.73652 48 17.2466 48C26.8697 48 35 40.5066 35 31.637C35 24.9309 32.4907 16.7989 28.4523 10.4128V10.4128ZM17.3374 44.9997C12.31 44.9997 8.23365 41.7953 8.23365 37.8411C8.23365 33.5961 14.5042 25.8304 16.6369 23.3117C16.8431 23.0682 17.3017 23.1959 17.2949 23.4927C17.2689 24.6411 17.2932 26.616 17.6477 28.4995C17.9983 30.363 18.672 32.1369 19.9393 32.9325C21.9552 31.7809 22.8461 30.3108 22.9214 28.5015C22.934 28.1992 23.4192 28.0879 23.5947 28.3535C25.7007 31.5422 26.7663 35.138 26.7663 37.8411C26.7663 41.7953 22.3649 44.9997 17.3374 44.9997V44.9997Z" fill="#EE896C"/>
</svg>
