<svg width="46" height="46" viewBox="0 0 46 46" fill="none" xmlns="http://www.w3.org/2000/svg">
<path d="M41.7939 19.2462H40.25V19.1666H23V26.8333H33.8321C32.2518 31.2963 28.0054 34.5 23 34.5C16.6492 34.5 11.5 29.3509 11.5 23C11.5 16.6491 16.6492 11.5 23 11.5C25.9316 11.5 28.5986 12.6059 30.6293 14.4124L36.0506 8.99106C32.6275 5.80077 28.0485 3.83331 23 3.83331C12.4152 3.83331 3.83337 12.4152 3.83337 23C3.83337 33.5848 12.4152 42.1666 23 42.1666C33.5848 42.1666 42.1667 33.5848 42.1667 23C42.1667 21.7149 42.0345 20.4604 41.7939 19.2462Z" fill="#FFC107"/>
<path d="M6.04321 14.0789L12.3404 18.6971C14.0443 14.4785 18.1709 11.5 23 11.5C25.9315 11.5 28.5985 12.6059 30.6293 14.4124L36.0505 8.99106C32.6274 5.80077 28.0485 3.83331 23 3.83331C15.638 3.83331 9.25363 7.9896 6.04321 14.0789Z" fill="#FF3D00"/>
<path d="M23 42.1667C27.9508 42.1667 32.4492 40.272 35.8503 37.191L29.9182 32.1712C27.9939 33.6289 25.6019 34.5 23 34.5C18.0148 34.5 13.7818 31.3212 12.1871 26.8851L5.93689 31.7007C9.10897 37.9078 15.5509 42.1667 23 42.1667Z" fill="#4CAF50"/>
<path d="M41.7939 19.2462H40.25V19.1667H23V26.8334H33.832C33.073 28.9771 31.694 30.8258 29.9153 32.1722C29.9163 32.1713 29.9173 32.1713 29.9182 32.1703L35.8503 37.1901C35.4305 37.5715 42.1667 32.5834 42.1667 23C42.1667 21.7149 42.0344 20.4604 41.7939 19.2462Z" fill="#1976D2"/>
</svg>
