<svg width="45" height="40" viewBox="0 0 45 40" fill="none" xmlns="http://www.w3.org/2000/svg">
<path fill-rule="evenodd" clip-rule="evenodd" d="M23.3263 3.68404L22.1054 4.93935L20.8845 3.68404C16.107 -1.22801 8.34868 -1.22801 3.57118 3.68404C-1.19039 8.57973 -1.19039 16.5054 3.57118 21.4011L21.3508 39.6815C21.7641 40.1064 22.4466 40.1064 22.86 39.6815L40.6396 21.4011C45.4011 16.5054 45.4011 8.57973 40.6396 3.68404C35.8621 -1.22801 28.1038 -1.22801 23.3263 3.68404ZM39.1305 5.15201C43.0973 9.23052 43.0973 15.8549 39.1305 19.9334L22.1055 37.4379L5.08049 19.9334C1.11371 15.8549 1.11371 9.23052 5.08049 5.15201C9.03135 1.08987 15.4245 1.08987 19.3754 5.15201L21.3509 7.18316C21.7642 7.60812 22.4468 7.60812 22.8601 7.18316L24.8356 5.15201C28.7865 1.08987 35.1796 1.08987 39.1305 5.15201Z" fill="white"/>
</svg>
