<svg width="49" height="45" viewBox="0 0 49 45" fill="none" xmlns="http://www.w3.org/2000/svg">
<path fill-rule="evenodd" clip-rule="evenodd" d="M48.6766 23.2689C47.6599 25.0403 45.2686 28.7594 41.5397 32.1601L38.0827 28.7031C40.6798 26.3731 42.5589 23.8104 43.6761 22.0611C41.3927 18.5845 34.4763 9.53902 23.9633 9.80607C22.4933 9.84282 21.1139 10.0731 19.8007 10.421L15.9297 6.54999C18.3111 5.60919 20.935 4.98198 23.8383 4.90848C38.4772 4.45033 47.1135 18.1067 48.6766 20.8312C49.1078 21.5858 49.1078 22.5143 48.6766 23.2689ZM29.1987 33.6791L33.0698 37.5501C30.6908 38.491 28.0644 39.1182 25.1635 39.1917C24.9626 39.1966 24.7617 39.199 24.5608 39.199C10.1964 39.199 1.8663 25.9567 0.32524 23.269C-0.108413 22.5144 -0.108413 21.5858 0.32524 20.8312C1.33955 19.0598 3.73077 15.3407 7.4597 11.9376L10.9167 15.3971C8.31966 17.727 6.44294 20.2898 5.32328 22.0391C7.6067 25.5156 14.4913 34.5391 25.0386 34.2941C26.5086 34.2573 27.888 34.027 29.1987 33.6791ZM24.4998 25.724C22.4736 25.724 20.8247 24.0776 20.8247 22.049C20.8247 21.9878 20.8517 21.9314 20.8541 21.8677L24.6835 25.6971C24.6198 25.6995 24.5635 25.724 24.4998 25.724ZM6.63181 0.716631C5.67631 -0.238877 4.12544 -0.238877 3.16749 0.716631C2.21198 1.67459 2.21198 3.22545 3.16749 4.18096L16.9635 17.977C16.2849 19.2216 15.9247 20.6059 15.9247 22.049C15.9247 26.7775 19.7737 30.624 24.4998 30.624C25.9453 30.624 27.3296 30.2639 28.5742 29.5877L42.3678 43.3813C42.848 43.8615 43.4728 44.0991 44.1 44.0991C44.7272 44.0991 45.3544 43.8615 45.8321 43.3813C46.7901 42.4258 46.7901 40.8749 45.8321 39.9169L6.63181 0.716631Z" fill="#D2D5D9"/>
</svg>
