<svg width="45" height="45" viewBox="0 0 45 45" fill="none" xmlns="http://www.w3.org/2000/svg">
<path d="M21.62 32C19.0684 32 17 34.0371 17 36.55V43.4833C17 44.321 17.6895 45 18.54 45H26.46C27.3105 45 28 44.321 28 43.4833V36.55C28 34.0371 25.9316 32 23.38 32H21.62Z" fill="#D2D5D9"/>
<path d="M30 43.6765V36.6176C30 32.9628 26.659 30 23.0042 30H21.9958C18.341 30 15 32.9628 15 36.6176V43.6765V43.6765C15 44.3349 14.5352 45 13.8768 45H11.9118C8.25695 45 5.29413 42.0372 5.29413 38.3824V22.2552C5.29413 20.6498 3.40328 19.7918 2.1951 20.849V20.849C1.64499 21.3303 0.808833 21.2746 0.32749 20.7245C-0.153854 20.1744 -0.0981099 19.3382 0.451997 18.8569L21.6284 0.327472C22.1275 -0.109157 22.8725 -0.109157 23.3715 0.327472L44.548 18.8569C45.0981 19.3382 45.1539 20.1744 44.6725 20.7245C44.1912 21.2746 43.355 21.3303 42.8049 20.849V20.849C41.5967 19.7918 39.7059 20.6498 39.7059 22.2552V38.3824C39.7059 42.0372 36.743 45 33.0882 45H31.1232C30.4648 45 30 44.3349 30 43.6765V43.6765Z" fill="#D2D5D9"/>
</svg>
