<svg width="24" height="10" viewBox="0 0 24 10" fill="none" xmlns="http://www.w3.org/2000/svg">
<path d="M0 0.215332H2.46005V9.91205H0V0.215332Z" fill="#FFFDFA"/>
<path d="M7.10843 4.68196C6.89709 3.20413 6.77956 2.38268 6.75637 2.21872C6.6534 1.42764 6.55528 0.739234 6.46147 0.151855C6.24851 0.151855 5.18589 0.151855 3.27197 0.151855V9.84858H5.42688L5.43443 3.44592L6.34124 9.84858H7.87615L8.73606 3.3035L8.74415 9.84858H10.892V0.151855H7.67829L7.10843 4.68196Z" fill="#FFFDFA"/>
<path d="M14.9533 2.16904C14.9803 2.2927 14.9943 2.57314 14.9943 3.01146C14.9943 3.38741 14.9943 6.39496 14.9943 6.77091C14.9943 7.41625 14.9533 7.81152 14.8719 7.95726C14.79 8.103 14.5722 8.17532 14.219 8.17532C14.219 7.53881 14.219 2.44672 14.219 1.81021C14.487 1.81021 14.6697 1.83947 14.7668 1.89688C14.8638 1.95484 14.9264 2.04538 14.9533 2.16904ZM16.0645 9.74976C16.3572 9.68406 16.6031 9.56813 16.8025 9.40307C17.0015 9.23746 17.1411 9.00836 17.2209 8.71522C17.3012 8.42264 17.3487 7.84133 17.3487 6.97185C17.3487 6.63179 17.3487 3.90744 17.3487 3.56682C17.3487 2.64932 17.3136 2.03434 17.2592 1.72188C17.2042 1.40887 17.0678 1.12456 16.8495 0.869517C16.6306 0.614471 16.3114 0.431192 15.892 0.319678C15.472 0.208164 14.7873 0.151855 13.5963 0.151855C13.474 0.151855 12.8626 0.151855 11.7611 0.151855V9.84858H14.7415C15.4283 9.82649 15.8693 9.79392 16.0645 9.74976Z" fill="#FFFDFA"/>
<path d="M21.3178 8.30062C21.2725 8.42373 21.0741 8.48611 20.9242 8.48611C20.7776 8.48611 20.68 8.42649 20.6304 8.3067C20.5808 8.18745 20.5565 7.91529 20.5565 7.48911C20.5565 7.23296 20.5565 5.18266 20.5565 4.92651C20.5565 4.48487 20.5781 4.2094 20.6217 4.09954C20.6649 3.99079 20.7598 3.93558 20.9064 3.93558C21.0563 3.93558 21.2574 3.99796 21.3091 4.12328C21.3604 4.24859 21.3862 4.51634 21.3862 4.92651C21.3862 5.09212 21.3862 5.92019 21.3862 7.41127C21.3706 7.92192 21.348 8.21837 21.3178 8.30062ZM18.1865 9.7641H20.4012C20.4934 9.39368 20.5441 9.18777 20.5544 9.14636C20.7549 9.39478 20.9754 9.58137 21.2175 9.70503C21.4585 9.82924 21.8192 9.89107 22.0984 9.89107C22.4871 9.89107 22.8225 9.78674 23.1055 9.57751C23.388 9.36884 23.5681 9.12152 23.6447 8.83721C23.7212 8.55236 23.7595 8.11955 23.7595 7.53769C23.7595 7.26553 23.7595 5.08936 23.7595 4.8172C23.7595 4.23203 23.7465 3.85001 23.7212 3.6706C23.6959 3.49118 23.6204 3.30846 23.4948 3.12131C23.3692 2.93417 23.1864 2.78898 22.947 2.68519C22.7076 2.58141 22.4251 2.52952 22.0995 2.52952C21.8165 2.52952 21.4542 2.58748 21.2126 2.70175C20.9716 2.81603 20.7528 2.98937 20.5565 3.22178C20.5565 3.01145 20.5565 1.96035 20.5565 0.0673828H18.1865V9.7641Z" fill="#FFFDFA"/>
</svg>
