<svg width="50" height="50" viewBox="0 0 50 50" fill="none" xmlns="http://www.w3.org/2000/svg">
<path d="M48.4444 8C48.4444 12.4183 44.7632 16 40.2222 16C35.6812 16 32 12.4183 32 8C32 3.58172 35.6812 0 40.2222 0C44.7632 0 48.4444 3.58172 48.4444 8Z" fill="#EE896C"/>
<path d="M16.4444 26C16.4444 30.4183 12.7632 34 8.22222 34C3.68121 34 0 30.4183 0 26C0 21.5817 3.68121 18 8.22222 18C12.7632 18 16.4444 21.5817 16.4444 26Z" fill="#EE896C"/>
<path d="M48.6667 42C48.6667 46.4183 44.9855 50 40.4445 50C35.9034 50 32.2222 46.4183 32.2222 42C32.2222 37.5817 35.9034 34 40.4445 34C44.9855 34 48.6667 37.5817 48.6667 42Z" fill="#EE896C"/>
<path fill-rule="evenodd" clip-rule="evenodd" d="M30.0869 12.7763C30.5945 13.7573 30.6047 14.7511 30.1097 14.996L19.7345 20.1283C19.2395 20.3732 18.4267 19.7764 17.9191 18.7954C17.4115 17.8144 17.4013 16.8206 17.8963 16.5757L28.2715 11.4434C28.7665 11.1985 29.5793 11.7953 30.0869 12.7763Z" fill="#EE896C"/>
<path fill-rule="evenodd" clip-rule="evenodd" d="M13.0169 27.7222C13.5785 26.7711 14.8136 26.4402 15.7755 26.9832L34.0686 37.3101C35.0305 37.8531 35.3549 39.0643 34.7933 40.0154V40.0154C34.2317 40.9666 32.9967 41.2974 32.0348 40.7544L13.7417 30.4276C12.7798 29.8846 12.4553 28.6733 13.0169 27.7222V27.7222Z" fill="#EE896C"/>
</svg>
