<svg width="47" height="44" viewBox="0 0 47 44" fill="none" xmlns="http://www.w3.org/2000/svg">
<path d="M19.1104 1C9.13789 1 1 8.59537 1 17.9031C1 27.2107 9.13789 34.8061 19.1104 34.8061C23.1986 34.8061 26.9652 33.5157 30.0025 31.3681L41.6996 42.2832C41.9298 42.5069 42.2055 42.6856 42.5106 42.8086C42.8157 42.9317 43.144 42.9967 43.4763 42.9999C43.8087 43.003 44.1383 42.9443 44.446 42.827C44.7537 42.7098 45.0333 42.5364 45.2683 42.3171C45.5033 42.0977 45.689 41.8368 45.8147 41.5496C45.9403 41.2625 46.0033 40.9548 45.9999 40.6446C45.9965 40.3344 45.9268 40.028 45.795 39.7432C45.6631 39.4585 45.4717 39.2012 45.232 38.9863L33.5373 28.069C35.8382 25.2342 37.2208 21.7187 37.2208 17.9031C37.2208 8.59537 29.0829 1 19.1104 1ZM19.1104 5.66291C26.3829 5.66291 32.2249 11.1154 32.2249 17.9031C32.2249 21.1621 30.8685 24.1054 28.6633 26.2931C28.4486 26.4382 28.26 26.6141 28.1046 26.8145C25.7602 28.8754 22.6047 30.1432 19.1104 30.1432C11.8379 30.1432 5.99598 24.6907 5.99598 17.9031C5.99598 11.1154 11.8379 5.66291 19.1104 5.66291Z" fill="white" stroke="white" stroke-width="0.6"/>
</svg>
