<svg width="45" height="39" viewBox="0 0 45 39" fill="none" xmlns="http://www.w3.org/2000/svg">
<path fill-rule="evenodd" clip-rule="evenodd" d="M40.9821 38.5714C42.0536 38.5714 42.9911 38.1696 43.7946 37.3661C44.5982 36.5625 45 35.625 45 34.5536V7.23214C45 6.16071 44.5982 5.22321 43.7946 4.41964C42.9911 3.61607 42.0536 3.21429 40.9821 3.21429H32.1429L28.9286 0H16.0714L12.8571 3.21429H4.01786C2.94643 3.21429 2.00893 3.61607 1.20536 4.41964C0.401786 5.22321 0 6.16071 0 7.23214V34.5536C0 35.625 0.401786 36.5625 1.20536 37.3661C2.00893 38.1696 2.94643 38.5714 4.01786 38.5714H40.9821ZM22.5 32.9464C19.4196 32.9464 16.7746 31.8415 14.5647 29.6317C12.3549 27.4219 11.25 24.7768 11.25 21.6964C11.25 18.6161 12.3549 15.971 14.5647 13.7612C16.7746 11.5513 19.4196 10.4464 22.5 10.4464C25.5804 10.4464 28.2254 11.5513 30.4353 13.7612C32.6451 15.971 33.75 18.6161 33.75 21.6964C33.75 24.7768 32.6451 27.4219 30.4353 29.6317C28.2254 31.8415 25.5804 32.9464 22.5 32.9464ZM28.8281 21.6964C28.8281 25.9152 26.7188 28.0246 22.5 28.0246C18.2812 28.0246 16.1719 25.9152 16.1719 21.6964C16.1719 17.4777 18.2812 15.3683 22.5 15.3683C26.7188 15.3683 28.8281 17.4777 28.8281 21.6964Z" fill="#D2D5D9"/>
</svg>
