<svg width="35" height="45" viewBox="0 0 35 45" fill="none" xmlns="http://www.w3.org/2000/svg">
<path fill-rule="evenodd" clip-rule="evenodd" d="M35 42.5C35 43.88 33.8825 45 32.5 45C31.1175 45 30 43.88 30 42.5C30 35.6075 24.3925 30 17.5 30C10.6075 30 5 35.6075 5 42.5C5 43.88 3.8825 45 2.5 45C1.1175 45 0 43.88 0 42.5C0 32.85 7.8525 25 17.5 25C27.1475 25 35 32.85 35 42.5ZM17.5 5C20.2575 5 22.5 7.2425 22.5 10C22.5 12.7575 20.2575 15 17.5 15C14.7425 15 12.5 12.7575 12.5 10C12.5 7.2425 14.7425 5 17.5 5ZM17.5 20C23.015 20 27.5 15.515 27.5 10C27.5 4.485 23.015 0 17.5 0C11.985 0 7.5 4.485 7.5 10C7.5 15.515 11.985 20 17.5 20Z" fill="#D2D5D9"/>
</svg>
