<svg width="23" height="18" viewBox="0 0 23 18" fill="none" xmlns="http://www.w3.org/2000/svg">
<path opacity="0.4" d="M17.1378 7.64679C18.5328 7.45079 19.6068 6.25479 19.6098 4.80579C19.6098 3.37779 18.5688 2.19379 17.2038 1.96979" stroke="#EE896C" stroke-width="1.5" stroke-linecap="round" stroke-linejoin="round"/>
<path opacity="0.4" d="M18.9786 11.0004C20.3296 11.2024 21.2726 11.6754 21.2726 12.6504C21.2726 13.3214 20.8286 13.7574 20.1106 14.0314" stroke="#EE896C" stroke-width="1.5" stroke-linecap="round" stroke-linejoin="round"/>
<path fill-rule="evenodd" clip-rule="evenodd" d="M11.1369 11.4139C7.92286 11.4139 5.17786 11.9009 5.17786 13.8459C5.17786 15.7899 7.90586 16.2909 11.1369 16.2909C14.3509 16.2909 17.0949 15.8089 17.0949 13.8629C17.0949 11.9169 14.3679 11.4139 11.1369 11.4139Z" stroke="#EE896C" stroke-width="1.5" stroke-linecap="round" stroke-linejoin="round"/>
<path fill-rule="evenodd" clip-rule="evenodd" d="M11.1368 8.638C13.2458 8.638 14.9558 6.929 14.9558 4.819C14.9558 2.71 13.2458 1 11.1368 1C9.02778 1 7.31778 2.71 7.31778 4.819C7.30978 6.921 9.00678 8.631 11.1088 8.638H11.1368Z" stroke="#EE896C" stroke-width="1.5" stroke-linecap="round" stroke-linejoin="round"/>
<path opacity="0.4" d="M5.13484 7.64679C3.73884 7.45079 2.66584 6.25479 2.66284 4.80579C2.66284 3.37779 3.70384 2.19379 5.06884 1.96979" stroke="#EE896C" stroke-width="1.5" stroke-linecap="round" stroke-linejoin="round"/>
<path opacity="0.4" d="M3.294 11.0004C1.943 11.2024 1 11.6754 1 12.6504C1 13.3214 1.444 13.7574 2.162 14.0314" stroke="#EE896C" stroke-width="1.5" stroke-linecap="round" stroke-linejoin="round"/>
</svg>
