<svg width="11" height="11" viewBox="0 0 11 11" fill="none" xmlns="http://www.w3.org/2000/svg">
<path fill-rule="evenodd" clip-rule="evenodd" d="M9.80034 1.20648C9.53413 0.940273 9.1041 0.940273 8.83788 1.20648L5.5 4.53754L2.16212 1.19966C1.8959 0.933447 1.46587 0.933447 1.19966 1.19966C0.933447 1.46587 0.933447 1.8959 1.19966 2.16212L4.53754 5.5L1.19966 8.83788C0.933447 9.1041 0.933447 9.53413 1.19966 9.80034C1.46587 10.0666 1.8959 10.0666 2.16212 9.80034L5.5 6.46246L8.83788 9.80034C9.1041 10.0666 9.53413 10.0666 9.80034 9.80034C10.0666 9.53413 10.0666 9.1041 9.80034 8.83788L6.46246 5.5L9.80034 2.16212C10.0597 1.90273 10.0597 1.46587 9.80034 1.20648Z" fill="#F6565D" stroke="#F6565D"/>
</svg>
