<svg width="43" height="43" viewBox="0 0 43 43" fill="none" xmlns="http://www.w3.org/2000/svg">
<g filter="url(#filter0_d_63_1012)">
<rect x="10" y="10" width="23" height="23" rx="6" fill="#EE896C"/>
</g>
<path d="M20.2319 16C17.3509 16 15 18.1701 15 20.8294C15 23.4888 17.3509 25.6589 20.2319 25.6589C21.4129 25.6589 22.5011 25.2902 23.3785 24.6766L26.7577 27.7952C26.8242 27.8591 26.9038 27.9102 26.992 27.9453C27.0801 27.9805 27.1749 27.9991 27.2709 28C27.3669 28.0009 27.4622 27.9841 27.5511 27.9506C27.64 27.9171 27.7207 27.8675 27.7886 27.8049C27.8565 27.7422 27.9102 27.6677 27.9465 27.5856C27.9827 27.5036 28.0009 27.4156 28 27.327C27.999 27.2384 27.9789 27.1508 27.9408 27.0695C27.9027 26.9881 27.8474 26.9146 27.7781 26.8532L24.3997 23.734C25.0644 22.9241 25.4638 21.9196 25.4638 20.8294C25.4638 18.1701 23.1129 16 20.2319 16ZM20.2319 17.3323C22.3328 17.3323 24.0205 18.8901 24.0205 20.8294C24.0205 21.7606 23.6287 22.6016 22.9916 23.2266C22.9296 23.268 22.8751 23.3183 22.8302 23.3756C22.1529 23.9644 21.2414 24.3266 20.2319 24.3266C18.131 24.3266 16.4433 22.7688 16.4433 20.8294C16.4433 18.8901 18.131 17.3323 20.2319 17.3323Z" fill="white" stroke="white" stroke-width="0.6"/>
<defs>
<filter id="filter0_d_63_1012" x="0" y="0" width="43" height="43" filterUnits="userSpaceOnUse" color-interpolation-filters="sRGB">
<feFlood flood-opacity="0" result="BackgroundImageFix"/>
<feColorMatrix in="SourceAlpha" type="matrix" values="0 0 0 0 0 0 0 0 0 0 0 0 0 0 0 0 0 0 127 0" result="hardAlpha"/>
<feMorphology radius="2" operator="erode" in="SourceAlpha" result="effect1_dropShadow_63_1012"/>
<feOffset/>
<feGaussianBlur stdDeviation="6"/>
<feColorMatrix type="matrix" values="0 0 0 0 0.945833 0 0 0 0 0.57229 0 0 0 0 0.465035 0 0 0 0.55 0"/>
<feBlend mode="normal" in2="BackgroundImageFix" result="effect1_dropShadow_63_1012"/>
<feBlend mode="normal" in="SourceGraphic" in2="effect1_dropShadow_63_1012" result="shape"/>
</filter>
</defs>
</svg>
