<svg width="51" height="41" viewBox="0 0 51 41" fill="none" xmlns="http://www.w3.org/2000/svg">
<path d="M45.0326 1.95294L17.0525 32.5589L5.97752 20.4446C5.71878 20.152 5.40484 19.9128 5.05096 19.7455C4.69341 19.5764 4.30476 19.4855 3.90858 19.4811C3.51239 19.4767 3.12179 19.559 2.7606 19.7202C2.39974 19.8814 2.07819 20.1169 1.8121 20.408C1.54618 20.6988 1.34031 21.04 1.20248 21.4092C1.06466 21.7785 0.996473 22.1714 1.00014 22.5657C1.00381 22.9601 1.0793 23.3516 1.22412 23.7182C1.3676 24.0813 1.57744 24.4154 1.84555 24.6991L14.9865 39.0733L14.9866 39.0734C15.518 39.6544 16.2589 40 17.0525 40C17.8461 40 18.5869 39.6544 19.1183 39.0734L19.1184 39.0733L49.1647 6.20732C49.5702 5.77382 49.8381 5.22756 49.946 4.64389C50.0544 4.05782 49.9991 3.44872 49.7841 2.89301C49.5689 2.33692 49.1995 1.85008 48.7105 1.50685C48.22 1.1626 47.6353 0.982017 47.034 1.00141L47.0661 1.99519L47.0337 1.00142C46.2593 1.02666 45.5446 1.37955 45.0326 1.95294Z" fill="#85D920" stroke="#85D920" stroke-width="2"/>
</svg>
